<?xml version="1.0" encoding="utf-8"?>
<!-- Generator: Adobe Illustrator 19.2.0, SVG Export Plug-In . SVG Version: 6.00 Build 0)  -->
<svg version="1.1" id="Layer_1" xmlns="http://www.w3.org/2000/svg" xmlns:xlink="http://www.w3.org/1999/xlink" x="0px" y="0px"
	 viewBox="0 0 145.1 78" style="enable-background:new 0 0 145.1 78;" xml:space="preserve">
<style type="text/css">
	.st0{enable-background:new    ;}
</style>
<title>best_words</title>
<g class="st0">
	<path d="M18.9,9c0.6-0.1,1.2-0.2,1.9-0.2c-0.7,3-1.4,6.4-2.1,10.2c-0.6,3.8-1.1,6.9-1.4,9.3l-6.2,1.2c0.4-3,1.1-6.5,2.1-10.4
		c1-3.9,1.9-6.9,2.8-9.2C17.3,9.4,18.3,9.1,18.9,9z"/>
	<path d="M35.8,11.6c0.5-0.1,1-0.1,1.6-0.1c-0.3,1.2-0.7,2.4-1,3.8s-0.6,2.8-0.9,4.2c0.9-0.4,1.9-0.7,3.1-1c0.3-1.2,0.7-2.4,1-3.5
		c0.3-1.1,0.7-2,1-2.8c1.1-0.4,1.9-0.7,2.4-0.8s1-0.1,1.6-0.2c-0.4,1.8-0.9,4-1.3,6.5c0.2,0,0.4,0,0.5-0.1c0.2,0,0.4-0.1,0.7-0.1
		l-1.2,4.5h-0.3h-0.3c-0.2,1.1-0.3,2.1-0.5,3.1c-0.1,1-0.2,1.8-0.3,2.6l-5.3,1c0.2-1.7,0.6-3.8,1.1-6.2c-0.9,0.1-1.8,0.3-2.8,0.6
		c-0.4,2.1-0.7,3.7-0.8,4.8l-5.2,0.9c0.4-2.5,1.1-5.5,2.1-8.7s1.8-5.9,2.6-7.7C34.5,11.9,35.3,11.7,35.8,11.6z"/>
	<path d="M45.2,28.5c-1.1,0.2-2,0.3-2.7,0.3c1.6-3,3.1-5.8,4.3-8.5s2.1-5.6,2.7-8.6l3.7-0.9L56,9.9c-0.3,2.4-0.4,4.5-0.4,6.3
		c0,1.8,0.1,3.4,0.2,4.8c0.3,0,0.6-0.1,0.9-0.1c0.3,0,0.6-0.1,0.9-0.2l-1.1,3.6h-0.1h-0.1c0.1,0.5,0.2,1,0.3,1.5s0.2,0.9,0.3,1.4
		c-1.1,0.7-2.8,1.3-5.1,1.6c-0.3-0.1-0.4-1.4-0.3-3.9c-0.3,0.1-0.6,0.1-0.9,0.2c-0.3,0.1-0.6,0.1-0.9,0.2c-0.3,0.1-0.4-0.2-0.5-0.9
		c-0.5,1.3-1,2.5-1.5,3.5C47.1,28.1,46.2,28.3,45.2,28.5z M51.6,21.9c0.1-2.2,0.3-4.8,0.6-7.8c-0.4,1.5-0.7,2.9-1.1,4.3
		c-0.4,1.4-0.8,2.7-1.2,4C50.5,22.3,51.1,22.1,51.6,21.9z"/>
	<path d="M71.5,10.9c1.1-0.2,2.1-0.2,2.9-0.2c-1.8,2.9-3.3,5.6-4.6,8.2c-1.3,2.6-2.3,5.4-2.9,8.3L63.1,28l-3,0.8
		c0.5-4.3,0.5-7.7,0.2-10.1s-0.7-4.6-1.1-6.6c1.2-0.7,3-1.2,5.4-1.5c0.3,0.1,0.3,1.4,0.2,4s-0.4,5.8-0.9,9.7
		c0.6-2.4,1.4-4.7,2.3-6.9c0.9-2.2,1.8-4.2,2.8-5.9C69.5,11.3,70.4,11.1,71.5,10.9z"/>
	<path d="M74.3,17.1c-0.2,0.1-0.4,0.1-0.6,0.1l0.9-4.8c2.4-0.4,4.6-0.8,6.6-1c2.1-0.2,4.1-0.4,6.2-0.5l-1.3,4.6
		c-2.1,0.1-4.4,0.3-7,0.7c-0.3,1.2-0.4,2.2-0.6,3c1.5-0.5,3.3-1,5.5-1.3l-1,3.6c-1.4,0-3.1,0.2-4.9,0.8c-0.1,0.4-0.1,0.8-0.2,1.1
		c-0.1,0.4-0.1,0.7-0.1,1.1c1.2-0.3,2.5-0.5,3.7-0.7s2.4-0.3,3.6-0.4l-1.3,4.3c-2.4,0-4.4,0.1-6,0.2c-1.6,0.1-3.5,0.4-5.5,0.7
		c0.6-4.4,1.5-8.3,2.7-11.8C74.8,17,74.5,17.1,74.3,17.1z"/>
	<path d="M99.2,16l-1.7,0.3c-0.6,0.1-1.1,0.2-1.8,0.3c-0.1-0.4-0.1-0.8-0.1-1.5c0-0.6,0.2-1.5,0.6-2.6c1.5-0.4,3-0.8,4.5-1.2
		c1.5-0.4,3.8-0.7,6.8-1c0,0.7-0.1,1.5-0.4,2.5s-0.5,1.9-0.8,2.8c-1.3-0.1-2.4-0.1-3.2,0c-0.6,2.3-1,4.5-1.3,6.5
		c-0.2,2.1-0.5,4-0.7,5.7l-5.3,1c0.3-1.8,0.6-3.7,1.2-5.9c0.5-2.2,1-4.2,1.6-6.1C98.9,16.5,99,16.2,99.2,16z"/>
	<path d="M113.1,11.6c0.5-0.1,1-0.1,1.6-0.1c-0.3,1.2-0.7,2.4-1,3.8s-0.6,2.8-0.9,4.2c0.9-0.4,1.9-0.7,3.1-1c0.3-1.2,0.7-2.4,1-3.5
		c0.3-1.1,0.7-2,1-2.8c1.1-0.4,1.9-0.7,2.4-0.8s1-0.1,1.6-0.2c-0.4,1.8-0.9,4-1.3,6.5c0.2,0,0.4,0,0.5-0.1s0.4-0.1,0.7-0.1l-1.2,4.5
		H120h-0.3c-0.2,1.1-0.3,2.1-0.5,3.1c-0.1,1-0.2,1.8-0.3,2.6l-5.3,1c0.2-1.7,0.6-3.8,1.1-6.2c-0.9,0.1-1.8,0.3-2.8,0.6
		c-0.4,2.1-0.7,3.7-0.8,4.8l-5.2,0.9c0.4-2.5,1.1-5.5,2.1-8.7c1-3.3,1.8-5.9,2.6-7.7C111.8,11.9,112.6,11.7,113.1,11.6z"/>
	<path d="M123.4,17.1c-0.2,0.1-0.4,0.1-0.6,0.1l0.9-4.8c2.4-0.4,4.6-0.8,6.6-1c2.1-0.2,4.1-0.4,6.2-0.5l-1.3,4.6
		c-2.1,0.1-4.4,0.3-7,0.7c-0.3,1.2-0.4,2.2-0.6,3c1.5-0.5,3.3-1,5.5-1.3l-1,3.6c-1.4,0-3.1,0.2-4.9,0.8c-0.1,0.4-0.1,0.8-0.2,1.1
		c-0.1,0.4-0.1,0.7-0.1,1.1c1.2-0.3,2.5-0.5,3.7-0.7s2.4-0.3,3.6-0.4l-1.3,4.3c-2.4,0-4.4,0.1-6,0.2c-1.6,0.1-3.5,0.4-5.5,0.7
		c0.6-4.4,1.5-8.3,2.7-11.8C123.9,17,123.7,17.1,123.4,17.1z"/>
</g>
<g class="st0">
	<path d="M12.9,41.7c-0.3,0.1-0.6,0.2-0.8,0.3c-0.3,0.1-0.5,0.2-0.7,0.2c0-0.5,0-1.1,0.1-2c0.1-0.9,0.3-2.1,0.6-3.6
		c0.9-0.5,2.1-1,3.4-1.5c1.3-0.5,2.4-0.8,3.4-0.7c0.7,0,1.3,0.5,1.9,1.4c0.6,0.9,1,1.9,1.3,3c0.3,1.3,0.3,2.8,0.2,4.5
		c-0.2,1.7-0.5,3.2-1.1,4.5c-0.2,0.5-0.4,0.9-0.7,1.3c0.9,1,1.5,2.2,1.9,3.7c0.3,1.3,0.3,3,0,5c-0.2,2-0.6,3.7-1.2,5
		c-0.7,1.5-1.6,2.7-2.9,3.6c-1.2,0.8-2.5,1.4-3.8,1.8c-1.3,0.4-2.5,0.5-3.5,0.5c-1,0-1.6-0.2-1.8-0.6c-0.1-0.1,0-1.5,0.2-4.2
		s0.4-4,0.6-4.1c0.2,0,0.5-0.1,1.1-0.1c-0.5-0.2-0.7-0.6-0.6-1.2c0.2-2.6,0.5-5.1,0.8-7.4c0.3-2.3,0.6-4.6,0.9-6.9
		C12.1,43.4,12.4,42.5,12.9,41.7z M16.8,58.8c0.8-0.6,1.3-1.6,1.4-3.1c0.2-1.6-0.1-2.6-0.8-3c-0.7-0.4-1.7-0.3-2.8,0.2
		c-0.2,2.4-0.3,4.7-0.4,6.9C15.2,59.7,16,59.4,16.8,58.8z M17,48.1c0.7-0.4,1.1-1.4,1.2-2.9c0-1.6-0.2-2.7-0.7-3.3S16.4,41,15.7,41
		c-0.3,2.2-0.6,4.9-0.8,7.9C15.5,48.8,16.2,48.5,17,48.1z"/>
	<path d="M23.2,46.7l0.7-9.1c2-0.9,3.8-1.5,5.6-1.9s3.5-0.7,5.2-0.9l-1.1,8.8c-1.7,0.1-3.7,0.6-5.9,1.3c-0.2,1.7-0.3,3.6-0.5,5.7
		c0.7-0.6,1.5-1.1,2.2-1.4c0.8-0.4,1.6-0.7,2.4-1l-0.8,7c-0.7,0-1.4,0.1-2.1,0.3c-0.7,0.2-1.4,0.6-2.1,1c0,0.8-0.1,1.5-0.1,2.2
		c0,0.7-0.1,1.4-0.1,2.1c1-0.5,2.1-0.9,3.1-1.3c1-0.4,2-0.6,3-0.7l-1,8.2c-2,0-3.7,0.1-5.1,0.3s-2.9,0.7-4.6,1.3
		c0.5-8.4,1.3-15.9,2.3-22.4C24.1,46.3,23.7,46.5,23.2,46.7z"/>
	<path d="M43,34.9c1.6,0.9,2.3,1.9,2.1,3.1c-0.3,2.8-0.6,5.2-0.8,7c-0.2,1.8-0.4,3.4-0.7,4.6c-0.8-1.2-1.5-2.3-2.1-3.3
		c-0.6-1-1.3-1.4-2-1.1c-0.4,0.1-0.8,0.7-1.1,1.6c-0.3,0.9-0.2,1.9,0.5,3c0.3,0.5,0.7,1.3,1.3,2.2c0.6,0.9,1.1,1.8,1.4,2.6
		c0.8,2,1.1,4.4,0.9,7.1c-0.1,2.4-0.6,4.3-1.5,5.6c-0.9,1.3-1.9,1.9-3,2c-0.9,0-1.8-0.4-2.7-1.5c-0.9-1-1.4-2-1.7-3l1.3-5.1
		c0.5,1,1,1.8,1.5,2.5c0.5,0.7,1,0.9,1.5,0.8c0.7-0.1,1-1,0.9-2.5c-0.1-0.8-0.5-1.7-1.2-2.7c-0.4-0.6-0.8-1.3-1.3-2.1
		s-0.9-1.6-1.2-2.5c-0.4-0.9-0.7-2.2-0.8-3.7s-0.2-3,0-4.6c0.2-1.6,0.5-3.4,1.1-5.3c0.6-1.9,1.4-3.4,2.5-4.4c0.4-0.4,0.9-0.7,1.4-1
		C40.2,33.8,41.5,34.1,43,34.9z"/>
	<path d="M48,44.9c-0.4,0.1-0.9,0.3-1.4,0.5c-0.5,0.2-1,0.3-1.5,0.6c-0.1-0.7-0.1-1.6,0-2.8c0-1.2,0.2-2.8,0.5-4.8
		c1.3-0.8,2.6-1.5,3.8-2.3c1.3-0.8,3.2-1.4,5.6-1.9c0,1.3-0.1,2.9-0.3,4.7c-0.2,1.8-0.4,3.6-0.7,5.3c-1-0.1-1.8-0.1-2.7-0.1
		c-0.5,4.3-0.9,8.5-1.1,12.4c-0.2,3.9-0.4,7.6-0.6,10.9l-4.4,1.9c0.2-3.3,0.5-7,1-11.2c0.4-4.1,0.9-8,1.3-11.6
		C47.7,46,47.8,45.5,48,44.9z"/>
	<path d="M77.2,35.1c0.9-0.3,1.7-0.5,2.4-0.4c-1.5,5.5-2.7,10.7-3.8,15.6c-1.1,4.9-2,10.2-2.5,15.8l-5.2,3c0.1-3.1,0.3-6.3,0.4-9.7
		c0.1-3.4,0.1-6.1,0.1-8.3c-0.4,2.1-0.8,4.6-1.2,7.6c-0.4,3-0.7,5.6-0.9,7.9l-5.1,2.7c0.4-8.2,0.4-14.6,0.1-19.1
		c-0.3-4.5-0.6-8.8-1-12.6c1-1.3,2.5-2.3,4.5-2.9c0.2,0.1,0.3,2.6,0.2,7.5S65,52.6,64.8,58.4c0.4-2.4,0.7-5.6,1.1-9.6
		c0.4-3.9,0.8-7.8,1.1-11.5c0.1,0,0.2-0.1,0.4-0.3c0.5-0.6,1-1.1,1.6-1.5c0.6-0.5,1.4-0.8,2.3-1.1c0.2,0.1,0.3,2.3,0.4,6.6
		c0.1,4.3,0,9-0.2,14.2c0.5-3,1-6.3,1.6-10s1.2-6.7,1.8-9C75.5,35.8,76.3,35.4,77.2,35.1z"/>
	<path d="M88,38.2c0.9,3.1,1.1,7.1,0.8,12c-0.4,4.9-1.2,9.3-2.6,13.1c-1.4,3.8-2.9,5.9-4.7,6.2c-1.8,0.3-3-1.3-3.7-4.9
		c-0.7-3.6-0.9-7.8-0.6-12.7c0.4-4.9,1.1-9.1,2.4-12.5s2.7-5.2,4.5-5.5C85.9,33.7,87.2,35.1,88,38.2z M82.1,47
		c-0.6,1.7-1,3.8-1.3,6.3c-0.3,2.6-0.3,4.8-0.1,6.7c0.2,1.9,0.7,2.7,1.4,2.6c0.7-0.1,1.4-1.2,2-3.1c0.6-1.9,1.1-4.2,1.3-7
		c0.5-5.4,0-8.1-1.5-8C83.3,44.5,82.7,45.3,82.1,47z"/>
	<path d="M91,44.6c-0.3,0.1-0.5,0.3-0.8,0.4c-0.2,0.1-0.5,0.2-0.6,0.2c0-0.7,0-1.6,0.1-2.8s0.3-2.8,0.6-4.9c1-0.7,2.2-1.4,3.5-2.2
		c1.4-0.7,2.5-1,3.5-0.9c1,0.1,1.8,0.8,2.4,2s1.1,2.6,1.3,4.1c0.3,1.8,0.3,3.8,0.1,6.1c-0.2,2.3-0.6,4.4-1.2,6.2
		c-0.6,1.7-1.2,3-2,3.8c-0.8,0.8-1.6,1.4-2.4,1.7c0,0,0,0-0.1,0l0,0c0.7,1.2,1.5,2.2,2.4,2.8c0.9,0.6,1.7,1,2.2,1.2
		c-0.1,1.2-0.4,2.6-0.8,4.1c-0.5,1.5-1.1,2.7-2,3.4c-0.7-0.9-1.4-2.1-2.3-3.7c-0.9-1.5-1.6-3.3-2.1-5.4c-0.1,1.1-0.1,2.1-0.2,3.2
		c-0.1,1-0.1,2.1-0.1,3L88,68.9c0.2-3.2,0.5-6.8,1-10.8s0.9-7.8,1.3-11.3C90.4,46,90.6,45.2,91,44.6z M95.4,52.6
		c0.8-0.7,1.2-2,1.3-3.8c0.1-2-0.2-3.4-0.7-4.1c-0.5-0.7-1.1-1.1-1.9-1.2c-0.3,1.9-0.5,3.7-0.6,5.5c-0.2,1.8-0.3,3.5-0.4,5.2
		C93.8,53.9,94.6,53.3,95.4,52.6z"/>
	<path d="M103.5,44.4c-0.3,0.2-0.6,0.4-0.9,0.5c-0.3,0.2-0.5,0.3-0.7,0.3c0-0.7,0-1.6,0-2.8s0.3-2.8,0.6-4.8c1-0.7,2.2-1.4,3.5-2.2
		c1.4-0.7,2.5-1,3.5-0.9c1.2,0.2,2.1,1.3,2.8,3.3c0.7,2,1.2,4.4,1.3,7.2c0.1,1.8,0,4.2-0.3,6.9s-0.8,5-1.4,6.7
		c-0.9,2.5-1.8,4.4-2.6,5.6s-1.6,2.1-2.4,2.8c-1.5,1.2-2.7,1.7-3.6,1.7c-1,0-1.9,0-2.9,0.1c0,0,0-0.1,0-0.3c0.2-3.2,0.5-6.7,1-10.7
		c0.5-3.9,0.9-7.7,1.4-11.1C102.9,46,103.1,45.1,103.5,44.4z M106.1,61.7c0.5-0.7,1.1-1.7,1.8-3.1c0.6-1.2,1-3.1,1.2-5.9
		c0.2-2.7,0.2-4.5,0.1-5.2c-0.4-2.6-1.3-3.9-2.7-4.1c-0.5,3.6-0.9,7-1.2,10.3c-0.3,3.3-0.5,6.4-0.7,9.3
		C105.1,62.8,105.6,62.4,106.1,61.7z"/>
	<path d="M122.3,34.9c1.6,0.9,2.3,1.9,2.1,3.1c-0.3,2.8-0.6,5.2-0.8,7c-0.2,1.8-0.4,3.4-0.7,4.6c-0.8-1.2-1.5-2.3-2.1-3.3
		c-0.6-1-1.3-1.4-2-1.1c-0.4,0.1-0.8,0.7-1.1,1.6c-0.3,0.9-0.2,1.9,0.5,3c0.3,0.5,0.7,1.3,1.3,2.2c0.6,0.9,1.1,1.8,1.4,2.6
		c0.8,2,1.1,4.4,0.9,7.1c-0.1,2.4-0.6,4.3-1.5,5.6c-0.9,1.3-1.9,1.9-3,2c-0.9,0-1.8-0.4-2.7-1.5c-0.9-1-1.4-2-1.7-3l1.3-5.1
		c0.5,1,1,1.8,1.5,2.5c0.5,0.7,1,0.9,1.5,0.8c0.7-0.1,1-1,0.9-2.5c-0.1-0.8-0.5-1.7-1.2-2.7c-0.4-0.6-0.8-1.3-1.3-2.1
		s-0.9-1.6-1.2-2.5c-0.4-0.9-0.7-2.2-0.8-3.7s-0.2-3,0-4.6c0.2-1.6,0.5-3.4,1.1-5.3s1.4-3.4,2.5-4.4c0.4-0.4,0.9-0.7,1.4-1
		C119.5,33.8,120.7,34.1,122.3,34.9z"/>
	<path d="M129.8,63c0.5,1,0.6,2.3,0.4,3.8c-0.2,1.5-0.6,2.8-1.3,3.8s-1.4,1.5-2.2,1.5c-0.8,0-1.4-0.5-1.9-1.5
		c-0.4-1-0.6-2.3-0.5-3.9c0.1-1.7,0.6-3,1.2-3.9s1.4-1.4,2.2-1.4S129.3,62,129.8,63z M130.6,34.6c1-0.1,1.7-0.2,2.2-0.3
		c-0.5,3.7-1,7.8-1.4,12.4c-0.4,4.6-0.7,8.3-0.9,11.2l-5.5,1.5c0.3-3.7,0.7-8,1.2-12.7s1-8.4,1.5-11
		C128.6,35.1,129.6,34.7,130.6,34.6z"/>
</g>
</svg>
