<?xml version="1.0" encoding="utf-8"?>
<!-- Generator: Adobe Illustrator 19.2.0, SVG Export Plug-In . SVG Version: 6.00 Build 0)  -->
<svg version="1.1" id="Layer_1" xmlns="http://www.w3.org/2000/svg" xmlns:xlink="http://www.w3.org/1999/xlink" x="0px" y="0px"
	 viewBox="0 0 1328 1062" style="enable-background:new 0 0 1328 1062;" xml:space="preserve">
<style type="text/css">
	.st0{fill:#00A7DF;}
	.st1{fill:#E2182C;}
	.st2{fill:#F9F7F7;}
	.st3{fill:#FFFFFF;}
</style>
<rect y="13" class="st0" width="1328" height="1049"/>
<polygon class="st1" points="0,74.4 0,172.3 839.1,305.7 0,285.1 0,367.3 818.3,327.5 0,446.9 0,549.1 829.3,347.6 0,654.4 0,767.1 
	862.1,360.9 0,949.2 0,1062 25.1,1062 851.4,404.6 287.9,1062 461.6,1062 876.8,411.6 636.6,1062 763,1062 902.4,413.4 849.7,1062 
	974.5,1062 939.6,418.8 1083.1,1062 1211.1,1062 959.1,409.7 1328,976 1328,798.5 975.6,387.8 1328,691.4 1328,600.8 983,366.1 
	1328,528.2 1328,471 1023.1,362.2 1328,431.9 1328,380.4 1034.1,342.1 1328,351.9 1328,303.1 1006,311 1328,259.7 1328,206.8 
	1003,289 1328,166.5 1328,104.3 983,266.8 1328,31.4 1328,13 1247.1,13 971.2,255.3 1175.9,13 1098.1,13 961.4,228.5 1042.2,13 
	981.9,13 931.5,227.3 954.4,13 894.9,13 905.5,209 861.8,13 799.9,13 875,217.7 746.9,13 676.1,13 875.6,243.6 607.1,13 496.6,13 
	862.1,261.6 333,13 117.8,13 838.4,276.2 "/>
<g>
	<polygon class="st2" points="795.6,12 786,12 850.9,188.7 740.3,12 729.7,12 889.1,266.7 	"/>
	<polygon class="st2" points="859.6,267.9 483.5,12 467.5,12 807.6,243.4 315.2,12 294,12 855.2,275.7 	"/>
	<polygon class="st2" points="874,250.7 667.6,12 655.7,12 827.5,210.6 596.2,12 582.4,12 867.7,257 	"/>
	<polygon class="st2" points="905,218.8 893.8,12 884.8,12 893.1,165 859,12 849.7,12 896.1,220 	"/>
	<polygon class="st2" points="1105.4,12 1094.8,12 975.8,199.5 1046.1,12 1036.5,12 937,277.5 	"/>
	<polygon class="st2" points="984.1,12 974.9,12 938.6,166.2 955.1,12 946,12 922,236.8 930.9,238.3 	"/>
	<polygon class="st2" points="969.2,268.7 1261.5,12 1247.9,12 1008.6,222.1 1186.1,12 1174.3,12 962.8,262.4 	"/>
	<polygon class="st2" points="1339.5,12 1330.5,12 1330.5,30.8 975.5,273.1 979.9,280.9 1330.5,115.7 1330.5,168.9 996.4,294.8 
		999.1,303.4 1330.5,219.6 1330.5,264 1000.3,316.6 1001.1,325.5 1330.5,317.4 1330.5,357.6 1029.2,347.6 1028.5,356.6 1330.5,396 
		1330.5,439 1019.1,367.8 1016.6,376.4 1330.5,488.5 1330.5,536.7 979.9,372 975.5,379.8 1330.5,621.4 1330.5,701.9 973.5,394.4 
		967.2,400.7 1330.5,824.2 1330.5,989.2 934.4,381.2 1203.8,1078.5 1084.2,1078.5 939,427.8 930.1,429 965.3,1078.5 848.7,1078.5 
		901.9,423.8 893,422.5 752,1078.5 634,1078.5 890.5,383.9 447.1,1078.5 283.3,1078.5 849.8,417.5 843.6,411.1 4.7,1078.5 
		-11.8,1078.5 -11.8,969.3 859.6,374.6 855.2,366.8 -12.5,775.7 -12.5,671.9 825.9,361.8 823.2,353.2 -12.5,556.3 -12.5,462.6 
		814,342 813.1,333 -12.5,373.2 -12.5,299.4 834,320.2 834.8,311.3 -12.5,176.6 -12.5,87.2 832.3,290.6 834.9,282 95.8,12 69.6,12 
		757.8,263.4 -21.5,75.8 -21.5,184.2 766.7,309.5 -21.5,290.2 -21.5,382.6 720.3,346.5 -21.5,454.8 -21.5,567.7 750,380.3 
		-18.6,664.6 -21.5,665.7 -21.5,789.9 807.7,399.1 -20.8,964.5 -20.8,1087.5 7.9,1087.5 812.3,447.5 263.7,1087.5 452.1,1087.5 
		853.1,459.3 621,1087.5 759.2,1087.5 887.3,491.6 838.9,1087.5 974.9,1087.5 942,482.8 1076.2,1084 1077,1087.5 1217,1087.5 
		973.8,458.2 1339.5,1019.6 1339.5,820.8 1012.9,440.1 1339.5,721.5 1339.5,616.6 1027.4,404.3 1339.5,550.9 1339.5,482.1 
		1091.2,393.5 1339.5,450.2 1339.5,388 1122.2,359.7 1339.5,367 1339.5,308.2 1068.2,314.8 1339.5,271.6 1339.5,208 1074.2,275.1 
		1339.5,175.1 1339.5,101.5 1027.3,248.6 1339.5,35.6 	"/>
</g>
<g>
	<path class="st3" d="M1055.7,158.2H748.8c-44.6,0-81.3,35.6-81.3,80v152.3c0,44.6,36.8,81.3,81.3,81.3H779l-77.2,82.3L878.4,472
		h177.4c44.6,0,81.8-36.9,81.8-81.3V238.2C1137.5,193.7,1100.2,158.2,1055.7,158.2z"/>
	<path d="M1153.1,385.8l-0.3-18.2l-0.7-36.5l-0.8-73l-0.1-18.2c0-3.1-0.3-6.1-0.5-9.2c-0.4-3.1-0.9-6.1-1.3-9.2
		c-2.7-12-8.1-23.4-15.8-33c-7.7-9.7-17.6-17.4-28.7-22.5c-11-5.3-23.3-7.9-35.6-7.9l-93.2-0.4l-23.3-0.1l-23.3-0.3l-46.6-0.5
		c-15.5-0.1-31.1-0.3-46.6-0.5l-46.6-0.8l-23.3-0.4h-3h-0.7h-0.1h-0.4h-0.4h-1.5l-5.8,0.1c-2,0.1-4,0.5-6.2,0.7l-3.1,0.4l-3,0.7
		c-7.9,1.6-15.6,4.6-22.9,8.4c-1.8,0.9-3.6,2-5.4,3l-5.1,3.5c-1.8,1.1-3.2,2.6-4.8,3.8c-1.6,1.3-3.2,2.6-4.6,4
		c-11.9,11.3-20.5,26.4-23.8,42.8l-1.1,6.2c-0.3,2-0.3,4.2-0.5,6.2l-0.3,3.1v3l-0.1,5.8l-0.4,23.3l-1.6,93.2l-0.4,23.3v3v0.7v1.2
		v1.5l0.3,5.8c0.1,2.2,0.5,4.4,0.9,6.7c0.1,1.1,0.3,2.3,0.5,3.4l0.8,3.1c4,16.8,13.2,32.2,25.5,44.3l4.7,4.4c1.6,1.3,3.4,2.7,5.1,4
		c0.8,0.7,1.8,1.3,2.6,1.9l2.7,1.8c1.9,1.1,3.6,2.4,5.5,3.4c7.5,4.2,15.9,7.1,24.4,9.3l6.5,1.1c2.2,0.4,4.3,0.5,6.5,0.7l3.2,0.1
		c1.1,0,2.3,0.1,3.1,0.1h5.7l-22.6,24c-12.9,13.6-25.7,27.5-38.5,41.2l-36.5,39.1l48.4-22.8l44-20.7l22.1-10.4l22-10.5l43.9-21
		l22-10.5c6.9-3.2,13.6-6.6,20.3-9.8l143.8-2.6l18.2-0.3l9.2-0.1h2.3h1.1h0.5h0.4h0.1h0.3l4.6-0.3c3-0.1,6.3-0.8,9.6-1.3l2.4-0.4
		l2.3-0.7l4.7-1.3c1.6-0.4,3-1.1,4.6-1.8l4.4-1.8l4.3-2.3c1.3-0.8,3-1.3,4.2-2.3c10.9-6.7,20.3-15.8,27.5-26.4
		c7.1-10.5,11.7-22.8,13.6-35.3l0.7-4.7c0.1-1.6,0.1-3.1,0.3-4.7l0.1-4.7L1153.1,385.8z M1149.3,258.1v73v36.5v18.2v4.6l-0.3,4.6
		c-0.1,1.5-0.1,3-0.3,4.4l-0.7,4.4c-2,11.9-6.6,23.3-13.5,33.1c-6.9,9.8-15.9,18.3-26.3,24.4c-10.4,6.2-22.2,9.7-34.2,10.5l-4.6,0.3
		c-1.5,0-3,0-4.6,0h-9.2h-18.2L891.8,472h-0.3l-0.1,0.1l-171.3,79.7l73.1-78l1.8-1.9h-2.6h-4.8h-18.5c-7.8,0.1-15.4-0.3-23-1.8
		c-7.4-1.8-14.8-4.3-21.5-7.9c-1.8-0.8-3.2-2-5-3l-2.4-1.5c-0.8-0.5-1.5-1.2-2.3-1.8c-1.5-1.2-3.1-2.3-4.6-3.5l-4.3-3.9
		c-11-10.6-19.3-24.2-23-39.2l-0.8-2.8c-0.1-0.9-0.3-1.9-0.4-2.8c-0.3-1.9-0.7-3.8-0.8-5.7l-0.3-5.8l0.1-1.5l0.1-0.7v-0.7v-3v-23.3
		l-0.3-93.2l0.1-23.3l0.1-5.8v-3v-2.8c0.1-1.9,0-3.9,0.3-5.8l0.8-5.7c2.8-15.1,10.5-29.2,21.4-40c1.2-1.5,2.8-2.7,4.2-3.9
		c1.5-1.2,2.8-2.6,4.4-3.6l4.7-3.4c1.6-0.9,3.4-1.9,5-3c6.7-3.6,13.9-6.6,21.4-8.2l2.8-0.7l2.8-0.4c1.9-0.3,3.8-0.7,5.7-0.8
		c3.9-0.1,7.7-0.4,11.6-0.4h23.3h93.2l186.5-0.1c12.1,0,24.1,2.7,35,7.9c10.9,5.1,20.7,12.7,28.1,22.2c7.5,9.4,12.8,20.6,15.4,32.5
		c0.5,3,0.9,5.9,1.3,8.9c0.1,3,0.4,6.1,0.4,9L1149.3,258.1z"/>
</g>
<polygon class="st1" points="2373.2,-1135 2280.4,-1135 2004.4,-892.7 2209.1,-1135 2131.4,-1135 1994.6,-919.5 2075.4,-1135 
	2015.1,-1135 1964.7,-920.7 1987.6,-1135 1928.1,-1135 1938.7,-939 1895,-1135 1833.1,-1135 1908.2,-930.3 1780.1,-1135 
	1709.3,-1135 1908.8,-904.4 1640.3,-1135 1529.9,-1135 1895.3,-886.4 1366.2,-1135 1151,-1135 1871.6,-871.8 1021.2,-1076.5 
	1021.2,-977.6 1872.3,-842.3 1021.2,-863.2 1021.2,-780.1 1851.5,-820.5 1021.2,-699.3 1021.2,-596 1862.5,-800.4 1021.2,-489.2 
	1021.2,-375.2 1895.3,-787.1 1021.9,-191.1 1021.9,-75 1044.5,-75 1884.6,-743.4 1311.7,-75 1487.8,-75 1910,-736.4 1665.7,-75 
	1793.8,-75 1935.6,-734.6 1882,-75 2008.3,-75 1972.8,-729.2 2118.8,-75 2248.6,-75 1992.3,-738.3 2373.2,-153.6 2373.2,-335.5 
	2008.8,-760.2 2373.2,-446.3 2373.2,-539 2016.2,-781.9 2373.2,-614.2 2373.2,-672.7 2056.3,-785.8 2373.2,-713.4 2373.2,-766 
	2067.3,-805.9 2373.2,-795.7 2373.2,-845.2 2039.2,-837 2373.2,-890.2 2373.2,-944.2 2036.2,-859 2373.2,-986 2373.2,-1049.4 
	2016.2,-881.2 2373.2,-1124.8 "/>
</svg>
