<?xml version="1.0" encoding="utf-8"?>
<!-- Generator: Adobe Illustrator 19.2.0, SVG Export Plug-In . SVG Version: 6.00 Build 0)  -->
<svg version="1.1" id="Layer_1" xmlns="http://www.w3.org/2000/svg" xmlns:xlink="http://www.w3.org/1999/xlink" x="0px" y="0px"
	 viewBox="0 0 1328 1051" style="enable-background:new 0 0 1328 1051;" xml:space="preserve">
<style type="text/css">
	.st0{fill:#00A7DF;}
	.st1{fill:#E2182C;}
	.st2{fill:#FFFFFF;}
</style>
<rect x="0" y="2" class="st0" width="1328" height="1049"/>
<polygon class="st1" points="1328,846.9 1328,697.8 1052.6,376.8 1328,614.1 1328,537.4 1060,355.1 1328,481 1328,432.5 
	1100.1,351.2 1328,403.3 1328,359.4 1111.1,331.1 1328,338.3 1328,294 1083,300 1328,261 1328,215.3 1080,278 1328,184.5 
	1328,129.5 1060,255.8 1328,72.9 1328,2 1324.1,2 1048.2,244.3 1252.9,2 1175.1,2 1038.4,217.5 1119.2,2 1058.9,2 1008.5,216.3 
	1031.4,2 971.9,2 982.5,198 938.8,2 876.9,2 952,206.7 823.9,2 753.1,2 952.6,232.6 684.1,2 573.6,2 939.1,250.6 410,2 194.8,2 
	915.4,265.2 0,44.9 0,149.1 916.1,294.7 0,272.2 0,360 895.3,316.5 0,447.1 0,556.8 906.3,336.6 0,671.9 0,792.4 939.1,349.9 
	0,990.7 0,1051 102.1,1051 928.4,393.6 364.9,1051 538.6,1051 953.8,400.6 713.6,1051 840,1051 979.4,402.4 926.7,1051 1051.5,1051 
	1016.6,407.8 1160.1,1051 1288.1,1051 1036.1,398.7 "/>
<g>
	<polygon class="st2" points="872.6,1 863,1 927.9,177.7 817.3,1 806.7,1 966.1,255.7 	"/>
	<polygon class="st2" points="936.6,256.9 560.5,1 544.5,1 884.6,232.4 392.2,1 371,1 932.2,264.7 	"/>
	<polygon class="st2" points="951,239.7 744.6,1 732.7,1 904.5,199.6 673.2,1 659.4,1 944.7,246 	"/>
	<polygon class="st2" points="982,207.8 970.8,1 961.8,1 970.1,154 936,1 926.7,1 973.1,209 	"/>
	<polygon class="st2" points="1182.4,1 1171.8,1 1052.8,188.5 1123.1,1 1113.5,1 1014,266.5 	"/>
	<polygon class="st2" points="1061.1,1 1051.9,1 1015.6,155.2 1032.1,1 1023,1 999,225.8 1007.9,227.3 	"/>
	<path class="st2" d="M1328,10.2V1h-3.1l-239.3,210.1L1263.1,1h-11.8l-211.5,250.4l6.4,6.3L1328,10.2 M1328,872.8 M1328,720.6
		 M0,805l884.7-416.9L0,992.2v10.9l936.6-639.5l-4.4-7.8L0,795.1V805z M0,164.4 M0,60.7l909.3,218.9l2.6-8.6L172.8,1h-26.2
		l688.2,251.4L0,51.4V60.7z M0,570.2l827-200.9L0,675.2v9.5l902.9-333.9l-2.7-8.6L0,561V570.2z M55.5,556.7 M0,461l891-130l-0.9-9
		L0,365.3v9l797.3-38.8L0,451.9V461z M0,286.8l911,22.4l0.8-8.9L0,155.4v9l843.7,134.1L0,277.8L0,286.8z M374.4,1051l552.4-644.5
		l-6.2-6.4L102.1,1051h14.9l772.3-614.5L362.5,1051H374.4z M717.1,1051l250.4-678.1L534.6,1051h10.7l384.7-602.7L707.4,1051H717.1z
		 M926.7,1051l52.2-638.2l-8.9-1.3L832.5,1051h9.1l122.6-570.4L917.9,1051H926.7z M1157.5,1051L1016,416.8l-8.9,1.2l34.3,633h9.1
		L1019,471.8l129.3,579.2H1157.5z M1284.1,1051l-233.3-603.8L1328,872.8v-16.6l-316.6-486l263,680.8H1284.1z M1328,488.4L1056.9,361
		l-4.4,7.8L1328,556.3v-10.9l-223.6-152.1l223.6,105V488.4z M1328,85V74l-275.5,188.1l4.4,7.8L1328,142.1v-10l-223.7,105.4L1328,85
		 M1328,132.2 M1328,187.8l-254.6,96l2.7,8.6l251.9-63.7v-9.3l-176.8,44.7l176.8-66.7V187.8z M1328,265.7l-250.7,39.9l0.8,8.9
		l249.9-6.1v-9l-182.8,4.4l182.8-29.1V265.7z M1328,344l-221.8-7.4l-0.7,9l222.5,29v-9.2l-128.8-16.8L1328,353V344z M1328,409.8
		l-231.9-53l-2.5,8.6l234.4,83.7v-9.6l-159.8-57L1328,419V409.8z M1328,622.5l-277.5-239.1l-6.3,6.3L1328,720.6v-13.9l-238.1-277.6
		L1328,634.3V622.5z"/>
</g>
<g>
	<path class="st2" d="M1132.7,147.2H825.8c-44.6,0-81.3,35.6-81.3,80v152.3c0,44.6,36.8,81.3,81.3,81.3H856l-77.2,82.3L955.4,461
		h177.4c44.6,0,81.8-36.9,81.8-81.3V227.2C1214.5,182.7,1177.2,147.2,1132.7,147.2z"/>
	<path d="M1230.1,374.8l-0.3-18.2l-0.7-36.5l-0.8-73l-0.1-18.2c0-3.1-0.3-6.1-0.5-9.2c-0.4-3.1-0.9-6.1-1.3-9.2
		c-2.7-12-8.1-23.4-15.8-33c-7.7-9.7-17.6-17.4-28.7-22.5c-11-5.3-23.3-7.9-35.6-7.9l-93.2-0.4l-23.3-0.1l-23.3-0.3l-46.6-0.5
		c-15.5-0.1-31.1-0.3-46.6-0.5l-46.6-0.8l-23.3-0.4h-3h-0.7h-0.1h-0.4h-0.4h-1.5l-5.8,0.1c-2,0.1-4,0.5-6.2,0.7l-3.1,0.4l-3,0.7
		c-7.9,1.6-15.6,4.6-22.9,8.4c-1.8,0.9-3.6,2-5.4,3l-5.1,3.5c-1.8,1.1-3.2,2.6-4.8,3.8c-1.6,1.3-3.2,2.6-4.6,4
		c-11.9,11.3-20.5,26.4-23.8,42.8l-1.1,6.2c-0.3,2-0.3,4.2-0.5,6.2l-0.3,3.1v3l-0.1,5.8l-0.4,23.3l-1.6,93.2l-0.4,23.3v3v0.7v1.2
		v1.5l0.3,5.8c0.1,2.2,0.5,4.4,0.9,6.7c0.1,1.1,0.3,2.3,0.5,3.4l0.8,3.1c4,16.8,13.2,32.2,25.5,44.3l4.7,4.4c1.6,1.3,3.4,2.7,5.1,4
		c0.8,0.7,1.8,1.3,2.6,1.9l2.7,1.8c1.9,1.1,3.6,2.4,5.5,3.4c7.5,4.2,15.9,7.1,24.4,9.3l6.5,1.1c2.2,0.4,4.3,0.5,6.5,0.7l3.2,0.1
		c1.1,0,2.3,0.1,3.1,0.1h5.7l-97.6,104.3c0,0,216-102.5,222.7-105.7l143.8-2.6l18.2-0.3l9.2-0.1h2.3h1.1h0.5h0.4h0.1h0.3l4.6-0.3
		c3-0.1,6.3-0.8,9.6-1.3l2.4-0.4l2.3-0.7l4.7-1.3c1.6-0.4,3-1.1,4.6-1.8l4.4-1.8l4.3-2.3c1.3-0.8,3-1.3,4.2-2.3
		c10.9-6.7,20.3-15.8,27.5-26.4c7.1-10.5,11.7-22.8,13.6-35.3l0.7-4.7c0.1-1.6,0.1-3.1,0.3-4.7l0.1-4.7L1230.1,374.8z M1226.3,247.1
		v73v36.5v18.2v4.6l-0.3,4.6c-0.1,1.5-0.1,3-0.3,4.4l-0.7,4.4c-2,11.9-6.6,23.3-13.5,33.1c-6.9,9.8-15.9,18.3-26.3,24.4
		c-10.4,6.2-22.2,9.7-34.2,10.5l-4.6,0.3c-1.5,0-3,0-4.6,0h-9.2h-18.2L968.8,461h-0.3l-0.1,0.1l-171.3,79.7l74.9-79.9h-2.6h-4.8
		h-18.5c-7.8,0.1-15.4-0.3-23-1.8c-7.4-1.8-14.8-4.3-21.5-7.9c-1.8-0.8-3.2-2-5-3l-2.4-1.5c-0.8-0.5-1.5-1.2-2.3-1.8
		c-1.5-1.2-3.1-2.3-4.6-3.5l-4.3-3.9c-11-10.6-19.3-24.2-23-39.2l-0.8-2.8c-0.1-0.9-0.3-1.9-0.4-2.8c-0.3-1.9-0.7-3.8-0.8-5.7
		l-0.3-5.8l0.1-1.5l0.1-0.7v-0.7v-3V352l-0.3-93.2l0.1-23.3l0.1-5.8v-3v-2.8c0.1-1.9,0-3.9,0.3-5.8l0.8-5.7
		c2.8-15.1,10.5-29.2,21.4-40c1.2-1.5,2.8-2.7,4.2-3.9c1.5-1.2,2.8-2.6,4.4-3.6l4.7-3.4c1.6-0.9,3.4-1.9,5-3
		c6.7-3.6,13.9-6.6,21.4-8.2l2.8-0.7l2.8-0.4c1.9-0.3,3.8-0.7,5.7-0.8c3.9-0.1,7.7-0.4,11.6-0.4h23.3h93.2l186.5-0.1
		c12.1,0,24.1,2.7,35,7.9c10.9,5.1,20.7,12.7,28.1,22.2c7.5,9.4,12.8,20.6,15.4,32.5c0.5,3,0.9,5.9,1.3,8.9c0.1,3,0.4,6.1,0.4,9
		L1226.3,247.1z"/>
</g>
</svg>
