<?xml version="1.0" encoding="utf-8"?>
<!-- Generator: Adobe Illustrator 19.2.0, SVG Export Plug-In . SVG Version: 6.00 Build 0)  -->
<svg version="1.1" id="Layer_1" xmlns="http://www.w3.org/2000/svg" xmlns:xlink="http://www.w3.org/1999/xlink" x="0px" y="0px"
	 viewBox="0 0 1328 1062" style="enable-background:new 0 0 1328 1062;" xml:space="preserve">
<style type="text/css">
	.st0{fill:#00A7DF;}
	.st1{fill:#E2182C;}
	.st2{fill:#FFFFFF;}
</style>
<path class="st0" d="M0,0v1062h1328V0L0,0z"/>
<polygon class="st1" points="1328,510.5 752.9,524.7 1328,433 1328,356.3 749.9,502.6 1328,284.5 1328,198.4 729.8,480.3 1328,72 
	1328,0 1251.7,0 718,468.6 1114,0 988.5,0 708.1,441.7 873.7,0 781.7,0 678.2,440.5 725.1,0 629.1,0 651.9,422.1 557.7,0 463.2,0 
	621.3,430.9 351.6,0 226.7,0 621.9,456.9 90,0 0,0 0,61.1 608.3,475 0,189.2 0,276.2 584.5,489.7 0,349 0,426.2 585.2,519.2 
	0,504.9 0,568.6 564.3,541.2 0,623.6 0,701.2 575.4,561.4 0,774.2 0,861.4 608.3,574.7 0,989.9 0,1062 76.6,1062 597.6,618.6 
	217.5,1062 344.6,1062 623.1,625.7 461.9,1062 555.4,1062 648.8,627.5 613.5,1062 709.5,1062 686.2,632.9 782,1062 875.1,1062 
	705.8,623.8 991.4,1062 1117.3,1062 722.4,601.7 1256.8,1062 1328,1062 1328,987 729.8,580 1328,861.1 1328,775.1 770.1,576 
	1328,703.6 1328,627.2 781.2,555.8 1328,574.2 "/>
<polygon class="st2" points="0,988.1 0,978.4 551.2,602.2 0,862 0,853.1 593.6,573.4 597.5,580.3 "/>
<polygon class="st2" points="0,776.4 0,767.4 495.9,583.9 0,704.5 0,696.2 561.4,559.8 563.7,567.4 "/>
<polygon class="st2" points="0,627.7 0,619.5 463.1,552.1 0,574.8 0,566.7 546.5,540 547.3,548 "/>
<polygon class="st2" points="572.1,525.6 0,511.5 0,503.5 512,516.1 0,434.7 0,426.5 572.8,517.6 "/>
<polygon class="st2" points="570.5,495.8 0,358.6 0,350.3 503.9,471.5 0,287.5 0,279 572.8,488.1 "/>
<polygon class="st2" points="593.6,480.9 0,202 0,193.1 551.1,452 0,77.1 0,67.4 597.5,473.9 "/>
<polygon class="st2" points="606.2,462.2 68.1,0 80.4,0 570.3,420.8 206.3,0 216.9,0 611.9,456.5 "/>
<polygon class="st2" points="625.3,468 332.4,0 341.9,0 591.2,398.3 445,0 453.6,0 "/>
<polygon class="st2" points="635,425.3 540,0 548.2,0 632.2,376.3 611.9,0 619.9,0 642.9,424.2 "/>
<polygon class="st2" points="669,443.7 661.1,442.4 708.2,0 716.3,0 675.9,379.3 765.1,0 773.4,0 "/>
<polygon class="st2" points="677.7,478.8 857.3,0 865.8,0 712.4,409.1 972.1,0 981.6,0 "/>
<polygon class="st2" points="707.5,473.8 701.8,468.2 1097.7,0 1108.2,0 742.8,432.2 1235.2,0 1247.4,0 "/>
<polygon class="st2" points="718.5,486.1 714.5,479.2 1328,60.6 1328,70.3 760.9,457.2 1328,190 1328,198.9 "/>
<polygon class="st2" points="737.8,508.7 735.4,501 1328,277.6 1328,286.2 804,483.8 1328,352.1 1328,360.4 "/>
<polygon class="st2" points="740,530.9 739.2,522.9 1328,428.9 1328,437 799.8,521.4 1328,508.4 1328,516.4 "/>
<polygon class="st2" points="1328,635.3 767.6,562.1 768.2,554.1 1328,572.8 1328,580.8 851.1,564.9 1328,627.2 "/>
<polygon class="st2" points="1328,786.3 755.7,582.1 757.9,574.4 1328,704.7 1328,713 822.5,597.4 1328,777.8 "/>
<polygon class="st2" points="1328,1003 714.5,585.6 718.5,578.6 1328,865 1328,873.9 760.9,607.5 1328,993.3 "/>
<polygon class="st2" points="1234.9,1062 747.1,641.9 1107.6,1062 1097,1062 706.3,606.7 711.9,601 1247.2,1062 "/>
<polygon class="st2" points="972,1062 710.3,660.4 865.4,1062 856.8,1062 675.2,591.7 981.6,1062 "/>
<polygon class="st2" points="764.3,1062 679.8,683.4 700.3,1062 692.3,1062 669.1,635.4 677.1,634.3 772.5,1062 "/>
<polygon class="st2" points="547,1062 538.8,1062 631.8,628.9 639.8,630.1 604.7,1062 596.6,1062 626.8,690.7 "/>
<polygon class="st2" points="337.7,1062 328.2,1062 626.8,594.3 454,1062 445.4,1062 593.3,661.6 "/>
<polygon class="st2" points="72.5,1062 60.1,1062 581.9,617.9 587.6,623.6 211.8,1062 201.2,1062 548.2,657.1 "/>
<path class="st2" d="M-205.7,21h-227.9c-33.1,0-60.4,26.4-60.4,59.4v113.1c0,33.1,27.3,60.4,60.4,60.4h22.4l-57.3,61.1l131.1-61.1
	h131.7c33.1,0,60.7-27.4,60.7-60.4V80.4C-145,47.4-172.7,21-205.7,21z"/>
<path d="M-133.4,190l-0.2-13.5l-0.5-27.1l-0.6-54.2l-0.1-13.5c0-2.3-0.2-4.5-0.4-6.8c-0.3-2.3-0.7-4.5-1-6.8
	c-2-8.9-6-17.4-11.7-24.5c-5.7-7.2-13.1-12.9-21.3-16.7c-8.2-3.9-17.3-5.9-26.4-5.9l-69.2-0.3l-17.3-0.1l-17.3-0.2L-334,20
	c-11.5-0.1-23.1-0.2-34.6-0.4l-34.6-0.6l-17.3-0.3h-2.2h-0.5h-0.1h-0.3h-0.3h-1.1l-4.3,0.1c-1.5,0.1-3,0.4-4.6,0.5l-2.3,0.3
	l-2.2,0.5c-5.9,1.2-11.6,3.4-17,6.2c-1.3,0.7-2.7,1.5-4,2.2l-3.8,2.6c-1.3,0.8-2.4,1.9-3.6,2.8c-1.2,1-2.4,1.9-3.4,3
	c-8.8,8.4-15.2,19.6-17.7,31.8l-0.8,4.6c-0.2,1.5-0.2,3.1-0.4,4.6l-0.2,2.3v2.2l-0.1,4.3l-0.3,17.3l-1.2,69.2l-0.3,17.3v2.2v0.5v0.9
	v1.1l0.2,4.3c0.1,1.6,0.4,3.3,0.7,5c0.1,0.8,0.2,1.7,0.4,2.5l0.6,2.3c3,12.5,9.8,23.9,18.9,32.9l3.5,3.3c1.2,1,2.5,2,3.8,3
	c0.6,0.5,1.3,1,1.9,1.4l2,1.3c1.4,0.8,2.7,1.8,4.1,2.5c5.6,3.1,11.8,5.3,18.1,6.9l4.8,0.8c1.6,0.3,3.2,0.4,4.8,0.5l2.4,0.1
	c0.8,0,1.7,0.1,2.3,0.1h4.2l-16.8,17.8c-9.6,10.1-19.1,20.4-28.6,30.6l-27.1,29l35.9-16.9l32.7-15.4l16.4-7.7l16.3-7.8l32.6-15.6
	l16.3-7.8c5.1-2.4,10.1-4.9,15.1-7.3l106.8-1.9l13.5-0.2l6.8-0.1h1.7h0.8h0.4h0.3h0.1h0.2l3.4-0.2c2.2-0.1,4.7-0.6,7.1-1l1.8-0.3
	l1.7-0.5l3.5-1c1.2-0.3,2.2-0.8,3.4-1.3l3.3-1.3l3.2-1.7c1-0.6,2.2-1,3.1-1.7c8.1-5,15.1-11.7,20.4-19.6c5.3-7.8,8.7-16.9,10.1-26.2
	l0.5-3.5c0.1-1.2,0.1-2.3,0.2-3.5l0.1-3.5L-133.4,190z M-136.2,95.2v54.2v27.1V190v3.4l-0.2,3.4c-0.1,1.1-0.1,2.2-0.2,3.3l-0.5,3.3
	c-1.5,8.8-4.9,17.3-10,24.6s-11.8,13.6-19.5,18.1c-7.7,4.6-16.5,7.2-25.4,7.8l-3.4,0.2c-1.1,0-2.2,0-3.4,0h-6.8h-13.5l-108.4-0.1
	h-0.2l-0.1,0.1L-455,313.3l54.3-57.9l1.3-1.4h-1.9h-3.6h-13.7c-5.8,0.1-11.4-0.2-17.1-1.3c-5.5-1.3-11-3.2-16-5.9
	c-1.3-0.6-2.4-1.5-3.7-2.2l-1.8-1.1c-0.6-0.4-1.1-0.9-1.7-1.3c-1.1-0.9-2.3-1.7-3.4-2.6l-3.2-2.9c-8.2-7.9-14.3-18-17.1-29.1
	l-0.6-2.1c-0.1-0.7-0.2-1.4-0.3-2.1c-0.2-1.4-0.5-2.8-0.6-4.2l-0.2-4.3l0.1-1.1l0.1-0.5v-0.5v-2.2v-17.3l-0.2-69.2l0.1-17.3l0.1-4.3
	v-2.2v-2.1c0.1-1.4,0-2.9,0.2-4.3l0.6-4.2c2.1-11.2,7.8-21.7,15.9-29.7c0.9-1.1,2.1-2,3.1-2.9c1.1-0.9,2.1-1.9,3.3-2.7l3.5-2.5
	c1.2-0.7,2.5-1.4,3.7-2.2c5-2.7,10.3-4.9,15.9-6.1l2.1-0.5l2.1-0.3c1.4-0.2,2.8-0.5,4.2-0.6c2.9-0.1,5.7-0.3,8.6-0.3h17.3h69.2
	l138.5-0.1c9,0,17.9,2,26,5.9c8.1,3.8,15.4,9.4,20.9,16.5c5.6,7,9.5,15.3,11.4,24.1c0.4,2.2,0.7,4.4,1,6.6c0.1,2.2,0.3,4.5,0.3,6.7
	L-136.2,95.2z"/>
</svg>
