<?xml version="1.0" encoding="utf-8"?>
<!-- Generator: Adobe Illustrator 19.2.0, SVG Export Plug-In . SVG Version: 6.00 Build 0)  -->
<svg version="1.1" id="Layer_1" xmlns="http://www.w3.org/2000/svg" xmlns:xlink="http://www.w3.org/1999/xlink" x="0px" y="0px"
	 viewBox="0 0 1328 1062" style="enable-background:new 0 0 1328 1062;" xml:space="preserve">
<style type="text/css">
	.st0{fill:#00A7DF;}
	.st1{fill:#E2182C;}
	.st2{fill:#FFFFFF;}
</style>
<path class="st0" d="M45.6,44v970h1252.2V44H45.6z"/>
<polygon class="st1" points="1302.7,511.3 758.5,524.7 1302.7,437.9 1302.7,364.2 755.5,502.7 1302.7,296.3 1302.7,213.2 
	735.5,480.5 1302.7,93.4 1302.7,43.7 1208,43.7 723.7,468.9 1083.1,43.7 966.8,43.7 713.9,442.1 863.3,43.7 777.5,43.7 684.1,440.9 
	726.4,43.7 637.5,43.7 658,422.6 573.4,43.7 485.3,43.7 627.5,431.4 384.9,43.7 270.4,43.7 628.1,457.2 146.7,43.7 50.6,43.7 
	50.6,91.5 614.6,475.3 50.6,210.3 50.6,292.5 590.9,489.9 50.6,359.8 50.6,433.3 591.6,519.3 50.6,506 50.6,566.4 570.8,541.1 
	50.6,617.1 50.6,690.3 581.8,561.2 50.6,757.7 50.6,840.3 614.6,574.5 50.6,959.4 50.6,1013.7 139.2,1013.7 603.9,618.2 
	264.9,1013.7 381.3,1013.7 629.3,625.2 485.8,1013.7 571.8,1013.7 654.9,627 623.5,1013.7 712.8,1013.7 692.1,632.4 777.2,1013.7 
	862.4,1013.7 711.6,623.4 966,1013.7 1081.9,1013.7 728.1,601.4 1206.8,1013.7 1302.7,1013.7 1302.7,965.7 735.5,579.8 
	1302.7,846.3 1302.7,763.9 775.6,575.8 1302.7,696.3 1302.7,623.1 786.6,555.7 1302.7,573 "/>
<g>
	<path class="st2" d="M1288.9,514.3l-543.4,13.5l-0.2-1.7l544.2-86.8l-0.8,0.9l0-73.7l1.2,0.9L742.8,505.9l-0.6-1.9l547.2-206.4
		l-0.7,1l0-83.2l1.5,1L723,483.8l-1.1-2l567.2-387.1l-0.5,1l0-49.7l1.2,1.2l-94.7,0l0.8-0.3L711.5,472.1l-1.8-1.7l359.3-425.2l1,2.1
		l-116.3,0l1.1-0.6L702,445.1l-6.6,10.4l4.3-11.6L849.1,45.5l1.2,1.8l-85.8,0l1.3-1l-93.4,397.2l-2.6-0.4l42.3-397.2l1.3,1.5
		l-88.9,0l1.3-1.4l20.6,378.9l-2.7,0.4L559.1,46.3l1.3,1.1l-88.1,0l1.3-1.8l142.2,387.6l4.6,12.5l-7.1-11.3L370.7,46.7l1.2,0.7
		l-114.5,0l1.1-2.3l357.7,413.5l-2,2L132.8,47.1l0.9,0.4l-96.1,0L39,46l0,47.8l-0.6-1.2l564,383.7l-1.5,2.6l-564-265l2.2-1.4l0,82.2
		l-1-1.4l540.4,197.3l-0.9,2.9L37.2,363.6l1.9-1.5l0,73.5l-1.3-1.5l541,86l-0.3,3.1l-541-13.3l1.6-1.6l0,60.4l-1.7-1.6l520.2-25.3
		l0.3,3.1l-520.2,76l1.3-1.5l0,73.2l-1.9-1.5L568.4,562l0.9,2.9L38.1,761.4l1-1.4l0,82.6l-2.1-1.4l564-265.7l1.5,2.6l-564,384.8
		l0.6-1.2l0,54.3l-1.5-1.5l88.6,0l-0.9,0.3L590,619.4l2,2l-339,395.5l-1.1-2.3l116.4,0l-1.2,0.6l248-388.5l6.9-10.8l-4.5,12
		l-143.6,388.5l-1.3-1.8l86,0l-1.3,1.1L640.6,629l2.7,0.4l-31.5,386.7l-1.3-1.4l89.3,0l-1.3,1.4l-20.7-381.3l2.6-0.4l85.1,381.4
		l-1.3-1l85.2,0l-1.2,1.8L697.4,626.1l-4.4-11.4l6.7,10.2L954,1015.3l-1.1-0.6l115.9,0l-1,2.1L714.1,604.5l1.7-1.7l478.7,412.3
		l-0.8-0.3l95.9,0l-1.2,1.2l0-48.1l0.5,1l-567.2-386l1.1-2l567.2,266.6l-1.5,1l0-82.3l0.7,1L762.3,579l0.6-1.9L1290,697.6l-1.1,0.9
		l0-73.2l0.8,0.9l-516.1-67.4l0.1-1.7l516.1,17.3l-0.8,0.8L1288.9,514.3z M1290.5,512.7l0.2,62.5l0,1l-1,0l-516.2-16l0.4-4.4
		l516.3,66.3l2.9,0.4l0,2.9l0.1,73.2l0,4.3l-4.2-1L761.6,582.5l2.5-8.7L1291.6,761l3.7,1.3l0,3.9l0.1,82.3l0,8.9l-8.1-3.8L719.7,588
		l6.6-11.6l567.8,385l3.4,2.3l0,4.1l0.1,48.1l0,7.8l-7.8,0l-95.9,0.1l-2.9,0l-2.2-1.9L709.4,610.3l12.3-12.3l354.3,411.9l13.4,15.5
		l-20.5,0l-115.9,0.1l-5.2,0l-2.8-4.4l-254.8-390l18-9.2l151.2,390.2l5.5,14.3l-15.4,0l-85.2,0.1l-8.5,0l-1.9-8.3L668.4,637l21.6-3
		l21,381.3l0.7,11.9l-11.9,0l-89.3,0.1l-12.3,0l1-12.3l31.1-386.7l23.2,3.4l-82.8,386.8l-2,9.6l-9.8,0l-86,0.1l-17.5,0l6.1-16.4
		l143.3-388.6l22.2,11L379,1022.8l-3.7,5.9l-7,0l-116.4,0.1l-27.8,0l18.1-21.1L581,612l18.4,18.4l-464.5,395.8l-3.7,3.2l-4.9,0
		l-88.6,0l-13.4,0l0-13.5l0-54.3l0-7.1l5.9-4l563.8-385.2l13.7,23.9L43.6,855.2l-20,9.4l0-22.1l0-82.6l0-9.8l9.2-3.4l531.1-196.6
		l8.3,27.1L41,706.4l-17.6,4.3l0-18.2l0-73.2l0-12.3l12.2-1.8l520.2-76l2.8,28.5L38.3,583.1l-15.1,0.7l0-15.1l0-60.4l0-14.7
		l14.7,0.4l541,13.3l-2.6,28.5l-541-86l-12.1-1.9l0-12.2l0-73.5l0-18.2l17.6,4.3l540.3,130.1l-8.2,27.2L32.8,308l-9.3-3.4l0-9.9
		l0-82.2l0-22.2l20,9.4l563.9,265.1L593.8,489L29.9,105l-6-4.1l0-7.2L24,46l0-13.6l13.6,0l96.1,0.1l5,0l3.8,3.3l481.1,413.8
		l-18.5,18.6L247.7,54.4l-18.4-21.3l28.1,0l114.5,0.1l7.1,0l3.8,6L625.1,427l-22.4,11l-142-387.7l-6.1-16.6l17.6,0l88.1,0.1l9.8,0
		l2.1,9.6l84.2,379l-23.5,3.2L613,46.6l-0.6-12.2l12.2,0l88.9,0.1l12.8,0l-1.4,12.7l-42.7,397.1l-21.8-3.7l93.8-397.1l2-8.3l8.5,0
		l85.8,0.1l15.4,0l-5.4,14.4L710.5,448l-18.2-9.1L945.6,40.8l2.9-4.5l5.3,0l116.3,0.1l20.6,0l-13.3,15.7L717.4,476.9l-12.6-12.4
		L1189.7,40l2.3-2l3,0l94.7,0.1l7.9,0l0,7.9l-0.1,49.7l0,4.2l-3.4,2.3L726.3,488.3l-6.7-11.7l567.7-266.4l8.2-3.9l0,9.1l-0.1,83.2
		l0,3.9l-3.6,1.4L744.1,509.2l-2.7-8.7l547.5-137.4l4.3-1.1l0,4.4l-0.1,73.7l0,2.8l-2.8,0.4L745.9,529l-0.4-4.2L1290.5,512.7z"/>
</g>
</svg>
