<?xml version="1.0" encoding="utf-8"?>
<!-- Generator: Adobe Illustrator 19.2.0, SVG Export Plug-In . SVG Version: 6.00 Build 0)  -->
<svg version="1.1" id="Layer_1" xmlns="http://www.w3.org/2000/svg" xmlns:xlink="http://www.w3.org/1999/xlink" x="0px" y="0px"
	 viewBox="0 0 1328 1062" style="enable-background:new 0 0 1328 1062;" xml:space="preserve">
<style type="text/css">
	.st0{fill:#00A7DF;}
	.st1{fill:#E2182C;}
	.st2{fill:none;stroke:#FFFFFF;stroke-width:8;stroke-miterlimit:10;}
	.st3{fill:#FFFFFF;}
</style>
<path class="st0" d="M39.6,44v970h1252.2V44H39.6z"/>
<polygon class="st1" points="1296.7,511.3 752.5,524.7 1296.7,437.9 1296.7,364.2 749.5,502.7 1296.7,296.3 1296.7,213.2 
	729.5,480.5 1296.7,93.4 1296.7,43.7 1202,43.7 717.7,468.9 1077.1,43.7 960.8,43.7 707.9,442.1 857.3,43.7 771.5,43.7 678.1,440.9 
	720.4,43.7 631.5,43.7 652,422.6 567.4,43.7 479.3,43.7 621.5,431.4 378.9,43.7 264.4,43.7 622.1,457.2 140.7,43.7 44.6,43.7 
	44.6,91.5 608.6,475.3 44.6,210.3 44.6,292.5 584.9,489.9 44.6,359.8 44.6,433.3 585.6,519.3 44.6,506 44.6,566.4 564.8,541.1 
	44.6,617.1 44.6,690.3 575.8,561.2 44.6,757.7 44.6,840.3 608.6,574.5 44.6,959.4 44.6,1013.7 133.2,1013.7 597.9,618.2 
	258.9,1013.7 375.3,1013.7 623.3,625.2 479.8,1013.7 565.8,1013.7 648.9,627 617.5,1013.7 706.8,1013.7 686.1,632.4 771.2,1013.7 
	856.4,1013.7 705.6,623.4 960,1013.7 1075.9,1013.7 722.1,601.4 1200.8,1013.7 1296.7,1013.7 1296.7,965.7 729.5,579.8 
	1296.7,846.3 1296.7,763.9 769.6,575.8 1296.7,696.3 1296.7,623.1 780.6,555.7 1296.7,573 "/>
<polygon class="st2" points="1283.7,513.5 739.5,526.9 1283.7,440.2 1283.7,366.4 736.5,504.9 1283.7,298.6 1283.7,215.4 
	716.5,482.7 1283.7,95.7 1283.7,46 1189,46 704.7,471.1 1064.1,46 947.8,46 694.9,444.4 844.3,46 758.5,46 665.1,443.2 707.4,46 
	618.5,46 639,424.9 554.4,46 466.3,46 608.5,433.6 365.9,46 251.4,46 609.1,459.5 127.7,46 31.6,46 31.6,93.8 595.6,477.5 
	31.6,212.5 31.6,294.8 571.9,492.1 31.6,362.1 31.6,435.6 572.6,521.6 31.6,508.3 31.6,568.7 551.8,543.3 31.6,619.3 31.6,692.6 
	562.8,563.5 31.6,760 31.6,842.6 595.6,576.8 31.6,961.7 31.6,1016 120.2,1016 584.9,620.5 245.9,1016 362.3,1016 610.3,627.5 
	466.8,1016 552.8,1016 635.9,629.3 604.5,1016 693.8,1016 673.1,634.7 758.2,1016 843.4,1016 692.6,625.6 947,1016 1062.9,1016 
	709.1,603.7 1187.8,1016 1283.7,1016 1283.7,967.9 716.5,582 1283.7,848.5 1283.7,766.2 756.6,578.1 1283.7,698.6 1283.7,625.4 
	767.6,558 1283.7,575.2 "/>
<path class="st3" d="M-205.7,21h-227.9c-33.1,0-60.4,26.4-60.4,59.4v113.1c0,33.1,27.3,60.4,60.4,60.4h22.4l-57.3,61.1l131.1-61.1
	h131.7c33.1,0,60.7-27.4,60.7-60.4V80.4C-145,47.4-172.7,21-205.7,21z"/>
<path d="M-133.4,190l-0.2-13.5l-0.5-27.1l-0.6-54.2l-0.1-13.5c0-2.3-0.2-4.5-0.4-6.8c-0.3-2.3-0.7-4.5-1-6.8
	c-2-8.9-6-17.4-11.7-24.5c-5.7-7.2-13.1-12.9-21.3-16.7c-8.2-3.9-17.3-5.9-26.4-5.9l-69.2-0.3l-17.3-0.1l-17.3-0.2l-34.6-0.4
	c-11.5-0.1-23.1-0.2-34.6-0.4l-34.6-0.6l-17.3-0.3l-2.2,0l-0.5,0l-0.1,0l-0.3,0l-0.3,0l-1.1,0l-4.3,0.1c-1.5,0.1-3,0.4-4.6,0.5
	l-2.3,0.3l-2.2,0.5c-5.9,1.2-11.6,3.4-17,6.2c-1.3,0.7-2.7,1.5-4,2.2l-3.8,2.6c-1.3,0.8-2.4,1.9-3.6,2.8c-1.2,1-2.4,1.9-3.4,3
	c-8.8,8.4-15.2,19.6-17.7,31.8l-0.8,4.6c-0.2,1.5-0.2,3.1-0.4,4.6l-0.2,2.3l0,2.2l-0.1,4.3l-0.3,17.3l-1.2,69.2l-0.3,17.3l0,2.2
	l0,0.5l0,0.9l0,1.1l0.2,4.3c0.1,1.6,0.4,3.3,0.7,5c0.1,0.8,0.2,1.7,0.4,2.5l0.6,2.3c3,12.5,9.8,23.9,18.9,32.9l3.5,3.3
	c1.2,1,2.5,2,3.8,3c0.6,0.5,1.3,1,1.9,1.4l2,1.3c1.4,0.8,2.7,1.8,4.1,2.5c5.6,3.1,11.8,5.3,18.1,6.9l4.8,0.8
	c1.6,0.3,3.2,0.4,4.8,0.5l2.4,0.1c0.8,0,1.7,0.1,2.3,0.1l4.2,0l-16.8,17.8c-9.6,10.1-19.1,20.4-28.6,30.6l-27.1,29l35.9-16.9
	l32.7-15.4l16.4-7.7l16.3-7.8l32.6-15.6l16.3-7.8c5.1-2.4,10.1-4.9,15.1-7.3l106.8-1.9l13.5-0.2l6.8-0.1l1.7,0l0.8,0l0.4,0l0.3,0
	l0.1,0l0.2,0l3.4-0.2c2.2-0.1,4.7-0.6,7.1-1l1.8-0.3l1.7-0.5l3.5-1c1.2-0.3,2.2-0.8,3.4-1.3l3.3-1.3l3.2-1.7c1-0.6,2.2-1,3.1-1.7
	c8.1-5,15.1-11.7,20.4-19.6c5.3-7.8,8.7-16.9,10.1-26.2l0.5-3.5c0.1-1.2,0.1-2.3,0.2-3.5l0.1-3.5L-133.4,190z M-136.2,95.2l0,54.2
	l0,27.1l0,13.5l0,3.4l-0.2,3.4c-0.1,1.1-0.1,2.2-0.2,3.3l-0.5,3.3c-1.5,8.8-4.9,17.3-10,24.6c-5.1,7.3-11.8,13.6-19.5,18.1
	c-7.7,4.6-16.5,7.2-25.4,7.8l-3.4,0.2c-1.1,0-2.2,0-3.4,0l-6.8,0l-13.5,0l-108.4-0.1h-0.2l-0.1,0.1l-127.2,59.2l54.3-57.9l1.3-1.4
	h-1.9l-3.6,0l-13.7,0c-5.8,0.1-11.4-0.2-17.1-1.3c-5.5-1.3-11-3.2-16-5.9c-1.3-0.6-2.4-1.5-3.7-2.2l-1.8-1.1
	c-0.6-0.4-1.1-0.9-1.7-1.3c-1.1-0.9-2.3-1.7-3.4-2.6l-3.2-2.9c-8.2-7.9-14.3-18-17.1-29.1l-0.6-2.1c-0.1-0.7-0.2-1.4-0.3-2.1
	c-0.2-1.4-0.5-2.8-0.6-4.2l-0.2-4.3l0.1-1.1l0.1-0.5v-0.5v-2.2v-17.3l-0.2-69.2l0.1-17.3l0.1-4.3v-2.2l0-2.1c0.1-1.4,0-2.9,0.2-4.3
	l0.6-4.2c2.1-11.2,7.8-21.7,15.9-29.7c0.9-1.1,2.1-2,3.1-2.9c1.1-0.9,2.1-1.9,3.3-2.7l3.5-2.5c1.2-0.7,2.5-1.4,3.7-2.2
	c5-2.7,10.3-4.9,15.9-6.1l2.1-0.5l2.1-0.3c1.4-0.2,2.8-0.5,4.2-0.6c2.9-0.1,5.7-0.3,8.6-0.3l17.3,0l69.2,0l138.5-0.1
	c9,0,17.9,2,26,5.9c8.1,3.8,15.4,9.4,20.9,16.5c5.6,7,9.5,15.3,11.4,24.1c0.4,2.2,0.7,4.4,1,6.6c0.1,2.2,0.3,4.5,0.3,6.7
	L-136.2,95.2z"/>
</svg>
