<svg id="Layer_1" data-name="Layer 1" xmlns="http://www.w3.org/2000/svg" xmlns:xlink="http://www.w3.org/1999/xlink" width="3.84in" height="0.97in" viewBox="0 0 276.26 69.5"><defs><style>.cls-1{fill:#231f20;stroke:#231f20;stroke-linejoin:round;stroke-width:6px;}.cls-2{fill:url(#linear-gradient);}</style><linearGradient id="linear-gradient" x1="8.87" y1="54" x2="279.13" y2="54" gradientUnits="userSpaceOnUse"><stop offset="0" stop-color="#6bcbe0"/><stop offset="1" stop-color="#6acbe5"/></linearGradient></defs><title>button</title><rect class="cls-1" x="3" y="3" width="270.26" height="63.5"/><path class="cls-2" d="M8.87,22.25V61.36L9,61.67a1.2,1.2,0,0,1-.16.24V72.32a1.37,1.37,0,0,1,.49-0.57,1.37,1.37,0,0,1,2.11.12c0.45,0.49.85,1,1.37,1.64-0.81.36-1.47,0.68-2.14,0.94a1,1,0,0,1-1.34-.4A2.88,2.88,0,0,1,9,73.58a2.74,2.74,0,0,1-.18-0.43v12.6H11.4c-0.06-.16-0.12-0.31-0.17-0.47-0.28-.89.11-1.49,1.17-2a1.24,1.24,0,0,1,1.84.61,6.16,6.16,0,0,1,.47,1,1,1,0,0,1,0,.82h16.2c0.2-.14.4-0.28,0.61-0.4a1,1,0,0,1,1.27.22l0.16,0.18h10c-0.24-.38-0.46-0.72-0.64-1.07a1,1,0,0,1,.28-1.49c0.56-.46,1.17-0.85,1.85-1.33,0.34,0.78.67,1.45,0.93,2.15a0.85,0.85,0,0,1-.44,1.21,11.33,11.33,0,0,1-1,.52H61.42a2.28,2.28,0,0,1,.36-0.39c0.52-.45,1.08-0.86,1.67-1.33,0.25,0.61.49,1.16,0.7,1.72H74.38a1.85,1.85,0,0,1-1.08-1.19,1.07,1.07,0,0,1,.31-1.21c1-.81,1.64-0.79,2.39.14,0.34,0.41.65,0.85,1,1.35-0.72.32-1.37,0.65-2,.89l-0.1,0H92.45a0.93,0.93,0,0,1,.37-0.42l1.7-1.11c0.18,0.56.35,1,.5,1.53h28.27a1.11,1.11,0,0,1,.46-0.73,1.06,1.06,0,0,1,1.78.15L126,85.75H279.13V22.25H8.87ZM25.91,52a3.71,3.71,0,0,1-.38.25c-1.45.71-1.67,0.61-2.18-1.07C24.7,50.15,25,50.25,25.91,52Zm-7,5.67a1.06,1.06,0,0,1,1.65.26c0.33,0.38.62,0.78,1,1.29-0.68.25-1.25,0.51-1.85,0.66a1,1,0,0,1-1.22-.93A0.86,0.86,0,0,1,18.9,57.66Zm-7.54-4.35c1.61-1,1.79-.91,2.75,1a1.58,1.58,0,0,1-.27.2C12.11,55.35,11.86,55.22,11.35,53.31Zm2.81,13.45A2.73,2.73,0,0,1,14,66.42c-0.13-.29-0.25-0.58-0.41-1,0.48-.31.94-0.63,1.42-0.92a0.81,0.81,0,0,1,1.17.22l1.27,1.67c-0.76.31-1.41,0.62-2.1,0.83A0.84,0.84,0,0,1,14.16,66.76Zm3.5,12.65a0.9,0.9,0,0,1-1.07-.36,19.14,19.14,0,0,1-1-2l1.66-.82a0.88,0.88,0,0,1,1.19.24c0.48,0.63.92,1.27,1.44,2C19.07,78.81,18.38,79.15,17.66,79.41Zm3.11-8.7a0.74,0.74,0,0,1,.2-0.93c0.58-.48,1.17-0.92,1.86-1.46,0.32,0.74.61,1.33,0.84,2a1.07,1.07,0,0,1-.43,1.27,12.38,12.38,0,0,1-1.43.71C21.46,71.75,21.08,71.25,20.77,70.71Zm5.46,12.15a3,3,0,0,1-.44.51,9.93,9.93,0,0,1-1.16.82,0.82,0.82,0,0,1-1.23-.42A11.19,11.19,0,0,1,23,82.71a1.24,1.24,0,0,1,.24-1.49,2.24,2.24,0,0,1,2.09-.64A2.19,2.19,0,0,1,26.23,82.86Zm-0.5-18.48a2.67,2.67,0,0,1-.3-0.67,1,1,0,0,1,.51-1.36,1.1,1.1,0,0,1,1.62.11c0.41,0.48.76,1,1.25,1.67-0.71.25-1.27,0.49-1.85,0.66A1.08,1.08,0,0,1,25.73,64.38ZM30.46,76a12.08,12.08,0,0,1-1.55.68,1.39,1.39,0,0,1-.23-0.21c-1.16-1.73-1.1-2,.65-3.14l0.79-.52c0.3,0.72.55,1.29,0.77,1.9A1.08,1.08,0,0,1,30.46,76Zm0.75-18.22c-0.25-.53-0.5-1-0.68-1.44a0.87,0.87,0,0,1,.59-1.22c0.64-.33.92-0.3,1.26,0.15a1,1,0,0,1,0,1.44C32.08,57.05,31.67,57.36,31.22,57.76ZM33,68.86c-0.21-.42-0.38-0.86-0.62-1.39,0.44-.29.77-0.54,1.12-0.74a1,1,0,0,1,1.47.32c0.34,0.45.64,0.94,1,1.49-0.65.26-1.26,0.52-1.87,0.74A0.82,0.82,0,0,1,33,68.86Zm4.58,12.2c-0.49.45-1,.85-1.68,1.4-0.34-.81-0.65-1.5-0.92-2.21A1,1,0,0,1,35.34,79a3.2,3.2,0,0,1,.47-0.32c0.82-.44,1.36-0.38,1.78.19A1.46,1.46,0,0,1,37.56,81.05ZM38,61.68c-0.21-.4-0.37-0.83-0.54-1.22,1.6-1.4,2-.75,2.8,1-0.49.2-1,.4-1.46,0.59A0.65,0.65,0,0,1,38,61.68Zm3.63,12.54a1,1,0,0,1-1.35-.52c-0.68-1-.59-1.56.37-2.24L42,70.57c0.28,0.72.59,1.39,0.78,2.08S42.54,73.87,41.68,74.22Zm4.48-7.52a1,1,0,0,1-1.34-.26,1.19,1.19,0,0,1,0-1.57A1.41,1.41,0,0,1,45,64.68l1.37-1c0.22,0.69.43,1.24,0.56,1.82A1,1,0,0,1,46.16,66.69Zm3.37,11.45a4,4,0,0,1-.49.29l-0.87.44c-0.34-.43-0.68-0.81-1-1.24a1.06,1.06,0,0,1,.18-1.32c0.5-.49,1.05-0.92,1.63-1.42,0.34,0.7.67,1.31,0.92,2A0.91,0.91,0,0,1,49.53,78.14Zm0.12-20.41c1.41-1,1.61-.91,2.51.85a1.52,1.52,0,0,1-.26.22C50.4,59.59,50.07,59.44,49.65,57.73ZM52,70.89a1.24,1.24,0,0,1,.35-2.07c0.37-.24.75-0.46,1.21-0.74,0.23,0.68.47,1.26,0.62,1.87a1.09,1.09,0,0,1-.9,1.35A0.89,0.89,0,0,1,52,70.89Zm3.84,12.74a0.86,0.86,0,0,1-1-.3A12.47,12.47,0,0,1,54,81.68a2.16,2.16,0,0,1,.27-0.3c1.81-1.31,2-1,3,.45,0.18,0.26.37,0.5,0.65,0.87C57.19,83.05,56.56,83.37,55.89,83.63Zm2.38-19.76a0.88,0.88,0,0,1-1.34-.16A1,1,0,0,1,57,62.2c0.35-.32.74-0.59,1.18-0.94,0.23,0.52.41,0.89,0.56,1.28A0.91,0.91,0,0,1,58.27,63.87Zm2.11,12.39c-0.68.26-1.22-.11-1.62-1A1.09,1.09,0,0,1,59.07,74a1.3,1.3,0,0,1,2.14.17c0.31,0.37.58,0.75,1,1.27C61.52,75.74,61,76,60.38,76.26Zm5.18-8.11a4.51,4.51,0,0,1-1,.45c-1.08-1.42-1-1.68.36-2.58a2.64,2.64,0,0,0,.43-0.49c0.31,0.66.42,0.88,0.58,1.23A1.17,1.17,0,0,1,65.56,68.15ZM67.9,80.81a1.19,1.19,0,0,1-1.6-.91,1.06,1.06,0,0,1,.54-1.51,2.54,2.54,0,0,1,.51-0.24,1,1,0,0,1,1.46.44c0.13,0.18.25,0.37,0.37,0.55l0.61,1C69.09,80.39,68.51,80.64,67.9,80.81Zm4.32-7.36a1.09,1.09,0,0,1-1.29-.72,0.83,0.83,0,0,1,.23-1.18c0.64-.59,1.21-0.93,2,0.05,0.27,0.34.55,0.66,0.92,1.1C73.37,73,72.81,73.27,72.22,73.45Zm4-7.63a9.67,9.67,0,0,1-.48-0.89c1.23-1.37,1.75-1,2.64.56-0.35.21-.69,0.43-1,0.62A0.68,0.68,0,0,1,76.26,65.83Zm3.41,12.51c-0.39.21-.75,0.46-1.19,0.74-0.24-.66-0.48-1.22-0.64-1.8s0.07-1.08.9-1.44c0.64-.28.9-0.18,1.32,0.5S80.7,77.79,79.67,78.34ZM83.12,70a0.84,0.84,0,0,1,.23-1.24,1,1,0,0,1,1.43,0c0.35,0.39.64,0.84,1,1.33-0.58.22-1,.42-1.52,0.56A0.86,0.86,0,0,1,83.12,70ZM87.8,82.48c-0.47.44-1,.81-1.61,1.31-0.32-.71-0.61-1.32-0.87-2a0.75,0.75,0,0,1,.34-1c0.43-.27.88-0.49,1.4-0.77A12.65,12.65,0,0,1,88,81.39,0.91,0.91,0,0,1,87.8,82.48Zm3.43-6.63c-0.12.09-.25,0.17-0.49,0.33l-0.57-1.13c-0.38-.73-0.32-0.94.4-1.38,0.29-.18.61-0.32,0.91-0.48C92.63,74.62,92.61,74.79,91.22,75.85Zm7.52,4.5a1,1,0,0,1-1.49-.55,1,1,0,0,1,.2-1.49,1.08,1.08,0,0,1,1.67.11c0.35,0.35.68,0.74,1.11,1.21C99.66,79.92,99.21,80.16,98.75,80.35Zm4.19-7.08a0.67,0.67,0,0,1-.22-0.14c-1-1.47-.93-1.73.74-2.48C104.58,72,104.54,72.16,102.94,73.27ZM105.51,85a0.94,0.94,0,0,1-1-.51A12.42,12.42,0,0,1,104,83.2c0.55-.29,1-0.57,1.57-0.81a0.63,0.63,0,0,1,.79.26c0.32,0.53.59,1.06,1,1.75C106.68,84.62,106.11,84.85,105.51,85Zm4.89-7.31a0.92,0.92,0,0,1-1.15-.58,0.84,0.84,0,0,1,.17-1.11,1,1,0,0,1,1.8.05c0.25,0.29.47,0.59,0.78,1C111.43,77.25,110.93,77.5,110.4,77.67Zm7.2,4.88a0.8,0.8,0,0,1-.92-0.32,7.29,7.29,0,0,1-.53-1.28,4.19,4.19,0,0,1,1.11-.6,1,1,0,0,1,1.07.46c0.23,0.36.49,0.67,0.84,1.13C118.44,82.23,118.05,82.41,117.6,82.55Zm11.95-2.93a4.11,4.11,0,0,1-.47.15,0.72,0.72,0,0,1-.18,0,0.55,0.55,0,0,1-.14-0.11c-0.75-1.2-.68-1.44.54-2.12l0.58-.31c0.17,0.38.29,0.63,0.39,0.92A1.17,1.17,0,0,1,129.55,79.62Zm7.4,4.64c-0.26.18-.54,0.33-0.94,0.58-0.21-.58-0.41-1-0.54-1.52a0.92,0.92,0,0,1,.73-1.15,0.74,0.74,0,0,1,1.09.41A1,1,0,0,1,137,84.26Z" transform="translate(-5.87 -19.25)"/></svg>