<?xml version="1.0" encoding="utf-8"?>
<!-- Generator: Adobe Illustrator 19.2.0, SVG Export Plug-In . SVG Version: 6.00 Build 0)  -->
<svg version="1.1" id="Layer_1" xmlns="http://www.w3.org/2000/svg" xmlns:xlink="http://www.w3.org/1999/xlink" x="0px" y="0px"
	 viewBox="0 0 276.5 69.8" style="enable-background:new 0 0 276.5 69.8;" xml:space="preserve">
<style type="text/css">
	.st0{fill:#231F20;stroke:#231F20;stroke-width:6;stroke-linejoin:round;}
	.st1{fill:#E2182C;}
</style>
<title>button</title>
<rect x="3" y="3.1" class="st0" width="270.5" height="63.6"/>
<path class="st1" d="M5.6,3.1C4.2,3.1,3,4.3,3,5.7v36.6l0.1,0.3c0,0.1-0.1,0.2-0.2,0.2v10.4C3,53,3.2,52.8,3.4,52.6
	C3.9,52,4.8,52,5.3,52.5c0.1,0.1,0.1,0.1,0.2,0.2c0.5,0.5,0.9,1,1.4,1.6c-0.8,0.4-1.5,0.7-2.1,0.9c-0.5,0.3-1.1,0.1-1.3-0.4
	c-0.1-0.1-0.2-0.3-0.3-0.5C3.1,54.4,3,54.2,3,54.1v10c0,1.4,1.2,2.6,2.6,2.6l0,0c-0.1-0.2-0.1-0.3-0.2-0.5c-0.3-0.9,0.1-1.5,1.2-2
	c0.6-0.4,1.3-0.2,1.7,0.4c0.1,0.1,0.1,0.2,0.1,0.2c0.2,0.3,0.3,0.7,0.5,1c0.1,0.3,0.1,0.6,0,0.8h16.2c0.2-0.1,0.4-0.3,0.6-0.4
	c0.4-0.2,1-0.2,1.3,0.2l0.2,0.2h10c-0.2-0.4-0.5-0.7-0.6-1.1c-0.3-0.4-0.3-1.1,0.2-1.4l0.1-0.1c0.6-0.5,1.2-0.9,1.9-1.3
	c0.3,0.8,0.7,1.5,0.9,2.2c0.2,0.4,0.1,0.9-0.3,1.2c0,0-0.1,0-0.1,0.1c-0.3,0.2-0.7,0.4-1,0.5h17.5c0.1-0.1,0.2-0.3,0.4-0.4
	c0.5-0.5,1.1-0.9,1.7-1.3c0.3,0.6,0.5,1.2,0.7,1.7h10.2c-0.5-0.2-0.9-0.7-1.1-1.2c-0.2-0.4,0-0.9,0.3-1.2c1-0.8,1.6-0.8,2.4,0.1
	c0.3,0.4,0.7,0.9,1,1.4c-0.7,0.3-1.4,0.7-2,0.9h-0.1h17.6c0.1-0.2,0.2-0.3,0.4-0.4l1.7-1.1c0.2,0.6,0.4,1,0.5,1.5h28.3
	c0-0.3,0.2-0.6,0.5-0.7c0.4-0.5,1-0.6,1.5-0.2c0.1,0.1,0.2,0.2,0.3,0.3l0.5,0.7h150.7c1.4,0,2.6-1.2,2.6-2.6V5.7
	c0-1.4-1.2-2.6-2.6-2.6H5.6z M20.1,32.9c-0.1,0.1-0.2,0.2-0.4,0.3c-1.5,0.7-1.7,0.6-2.2-1.1C18.8,31.1,19.1,31.2,20.1,32.9z
	 M13.1,38.6c0.4-0.4,1.1-0.4,1.5,0.1c0.1,0.1,0.1,0.1,0.2,0.2c0.3,0.4,0.6,0.8,1,1.3c-0.7,0.3-1.3,0.5-1.9,0.7
	c-0.5,0.1-1.1-0.2-1.2-0.8c0-0.1,0-0.1,0-0.2c-0.3-0.4-0.2-0.9,0.2-1.2C12.9,38.6,13,38.6,13.1,38.6L13.1,38.6z M5.5,34.2
	c1.6-1,1.8-0.9,2.8,1c-0.1,0.1-0.2,0.1-0.3,0.2C6.2,36.3,6,36.1,5.5,34.2L5.5,34.2z M8.3,47.7c-0.1-0.1-0.1-0.2-0.2-0.4
	c-0.1-0.3-0.3-0.6-0.4-1c0.5-0.3,0.9-0.6,1.4-0.9c0.4-0.3,0.9-0.2,1.1,0.2c0,0,0,0,0,0.1l1.3,1.7c-0.8,0.3-1.4,0.6-2.1,0.8
	c-0.4,0.2-0.9,0.1-1.1-0.3C8.3,47.8,8.3,47.7,8.3,47.7L8.3,47.7z M11.8,60.4c-0.4,0.1-0.8,0-1.1-0.4c-0.4-0.6-0.7-1.3-1-2l1.7-0.8
	c0.4-0.3,0.9-0.1,1.2,0.2c0.5,0.6,0.9,1.3,1.4,2C13.2,59.7,12.5,60.1,11.8,60.4L11.8,60.4z M14.9,51.7c-0.2-0.3-0.1-0.7,0.2-0.9
	c0.6-0.5,1.2-0.9,1.9-1.5c0.3,0.7,0.6,1.3,0.8,2c0.2,0.5,0,1-0.4,1.3c-0.5,0.3-0.9,0.5-1.4,0.7C15.6,52.7,15.2,52.2,14.9,51.7
	L14.9,51.7z M20.4,63.8c-0.1,0.2-0.3,0.4-0.4,0.5c-0.4,0.3-0.8,0.6-1.2,0.8c-0.4,0.3-0.9,0.1-1.1-0.2c0-0.1-0.1-0.1-0.1-0.2
	c-0.2-0.3-0.3-0.7-0.4-1.1c-0.3-0.5-0.2-1.1,0.2-1.5c0.5-0.6,1.3-0.8,2.1-0.6C20.2,62,20.6,62.9,20.4,63.8L20.4,63.8z M19.9,45.3
	c-0.1-0.2-0.2-0.4-0.3-0.7c-0.2-0.5,0-1.1,0.5-1.3l0,0c0.4-0.4,1.1-0.4,1.6,0c0,0,0,0,0.1,0.1c0.4,0.5,0.8,1,1.3,1.7
	c-0.7,0.3-1.3,0.5-1.9,0.7C20.7,45.9,20.1,45.7,19.9,45.3L19.9,45.3z M24.6,56.9c-0.5,0.3-1,0.5-1.6,0.7c-0.1-0.1-0.2-0.1-0.2-0.2
	c-1.2-1.7-1.1-2,0.7-3.1l0.8-0.5c0.3,0.7,0.6,1.3,0.8,1.9C25.2,56.1,25,56.7,24.6,56.9z M25.4,38.7c-0.3-0.5-0.5-1-0.7-1.4
	s0-1,0.4-1.2c0.1,0,0.1,0,0.2-0.1c0.6-0.3,0.9-0.3,1.3,0.2c0.4,0.4,0.4,1,0,1.4l0,0C26.2,38,25.8,38.3,25.4,38.7L25.4,38.7z
	 M27.2,49.8c-0.2-0.4-0.4-0.9-0.6-1.4c0.4-0.3,0.8-0.5,1.1-0.7c0.4-0.3,1.1-0.2,1.4,0.2l0.1,0.1c0.3,0.5,0.6,0.9,1,1.5
	c-0.7,0.3-1.3,0.5-1.9,0.7C27.8,50.4,27.4,50.2,27.2,49.8L27.2,49.8z M31.7,62c-0.5,0.5-1,0.9-1.7,1.4c-0.3-0.8-0.7-1.5-0.9-2.2
	c-0.2-0.4-0.1-1,0.4-1.3c0.1-0.1,0.3-0.2,0.5-0.3c0.8-0.4,1.4-0.4,1.8,0.2c0.6,0.5,0.6,1.5,0.1,2.1C31.8,61.9,31.8,62,31.7,62
	L31.7,62z M32.2,42.6c-0.2-0.4-0.4-0.8-0.5-1.2c1.6-1.4,2-0.8,2.8,1c-0.5,0.2-1,0.4-1.5,0.6C32.6,43.1,32.3,42.9,32.2,42.6z
	 M35.8,55.2c-0.5,0.2-1.1,0-1.3-0.5l0,0c-0.7-1-0.6-1.6,0.4-2.2l1.4-0.9c0.3,0.7,0.6,1.4,0.8,2.1C37.1,54.3,36.7,54.8,35.8,55.2
	L35.8,55.2z M40.3,47.6c-0.4,0.3-1,0.2-1.3-0.3c-0.4-0.4-0.4-1.1,0-1.6c0.1-0.1,0.1-0.1,0.2-0.2l1.4-1c0.2,0.7,0.4,1.2,0.6,1.8
	C41.2,47,40.9,47.5,40.3,47.6L40.3,47.6L40.3,47.6z M43.6,59.1c-0.2,0.1-0.3,0.2-0.5,0.3l-0.9,0.4c-0.3-0.4-0.7-0.8-1-1.2
	s-0.2-1,0.2-1.3c0.5-0.5,1.1-0.9,1.6-1.4c0.3,0.7,0.7,1.3,0.9,2C44.3,58.3,44.1,58.8,43.6,59.1L43.6,59.1z M43.8,38.7
	c1.4-1,1.6-0.9,2.5,0.9c-0.1,0.1-0.2,0.2-0.3,0.2C44.6,40.5,44.2,40.4,43.8,38.7L43.8,38.7z M46.2,51.8c-0.5-0.5-0.6-1.2-0.1-1.8
	c0.1-0.1,0.3-0.2,0.4-0.3c0.4-0.2,0.8-0.5,1.2-0.7c0.2,0.7,0.5,1.3,0.6,1.9c0.1,0.6-0.2,1.2-0.8,1.3h-0.1c-0.4,0.3-1,0.1-1.2-0.3
	C46.2,51.9,46.2,51.9,46.2,51.8z M50,64.6c-0.4,0.1-0.8,0-1-0.3c-0.3-0.5-0.6-1.1-0.8-1.7c0.1-0.1,0.2-0.2,0.3-0.3
	c1.8-1.3,2-1,3,0.5c0.2,0.3,0.4,0.5,0.7,0.9C51.4,64,50.7,64.3,50,64.6L50,64.6z M52.4,44.8c-0.4,0.3-0.9,0.3-1.2,0l-0.1-0.1
	c-0.4-0.4-0.4-1,0-1.4l0.1-0.1c0.4-0.3,0.7-0.6,1.2-0.9c0.2,0.5,0.4,0.9,0.6,1.3c0.3,0.4,0.1,1-0.3,1.3
	C52.6,44.8,52.5,44.8,52.4,44.8L52.4,44.8z M54.5,57.2c-0.7,0.3-1.2-0.1-1.6-1c-0.2-0.5,0-1,0.4-1.3c0.5-0.6,1.3-0.6,1.8-0.2
	c0.1,0.1,0.2,0.2,0.3,0.4c0.3,0.4,0.6,0.8,1,1.3C55.7,56.7,55.2,56.9,54.5,57.2L54.5,57.2z M59.7,49.1c-0.3,0.2-0.7,0.3-1,0.5
	c-1.1-1.4-1-1.7,0.4-2.6c0.2-0.1,0.3-0.3,0.4-0.5c0.3,0.7,0.4,0.9,0.6,1.2C60.3,48.2,60.1,48.7,59.7,49.1L59.7,49.1z M62.1,61.8
	c-0.6,0.2-1.3-0.1-1.5-0.7c0-0.1,0-0.1-0.1-0.2c-0.3-0.5-0.1-1.2,0.4-1.4c0,0,0.1,0,0.1-0.1c0.2-0.1,0.3-0.2,0.5-0.2
	c0.5-0.3,1.1-0.2,1.4,0.3l0.1,0.1c0.1,0.2,0.3,0.4,0.4,0.6l0.6,1C63.3,61.3,62.7,61.6,62.1,61.8z M66.4,54.4
	c-0.6,0.1-1.1-0.2-1.3-0.7c-0.3-0.4-0.2-0.9,0.2-1.2l0,0c0.6-0.6,1.2-0.9,2,0.1c0.3,0.3,0.6,0.7,0.9,1.1
	C67.6,53.9,67,54.2,66.4,54.4z M70.4,46.7c-0.2-0.3-0.3-0.6-0.5-0.9c1.2-1.4,1.8-1,2.6,0.6c-0.4,0.2-0.7,0.4-1,0.6
	c-0.3,0.3-0.7,0.3-1,0C70.5,46.9,70.5,46.9,70.4,46.7L70.4,46.7z M73.8,59.3c-0.4,0.2-0.8,0.5-1.2,0.7c-0.2-0.7-0.5-1.2-0.6-1.8
	s0.1-1.1,0.9-1.4c0.6-0.3,0.9-0.2,1.3,0.5C74.6,57.9,74.9,58.7,73.8,59.3L73.8,59.3z M77.3,50.9c-0.3-0.4-0.2-0.9,0.1-1.2
	c0,0,0.1,0,0.1-0.1c0.4-0.4,1-0.4,1.4,0l0,0c0.4,0.4,0.6,0.8,1,1.3c-0.6,0.2-1,0.4-1.5,0.6C78,51.7,77.5,51.4,77.3,50.9
	C77.3,51,77.3,51,77.3,50.9z M82,63.4c-0.5,0.4-1,0.8-1.6,1.3c-0.3-0.7-0.6-1.3-0.9-2c-0.2-0.4,0-0.8,0.3-1c0.4-0.3,0.9-0.5,1.4-0.8
	c0.3,0.4,0.7,0.9,0.9,1.4C82.4,62.7,82.3,63.1,82,63.4z M85.4,56.8c-0.1,0.1-0.3,0.2-0.5,0.3L84.4,56c-0.4-0.7-0.4-1,0.4-1.4
	c0.3-0.2,0.6-0.3,0.9-0.5C86.8,55.6,86.8,55.7,85.4,56.8L85.4,56.8z M93,61.3c-0.5,0.3-1.1,0.2-1.4-0.3c0-0.1-0.1-0.2-0.1-0.2
	c-0.4-0.4-0.3-1,0.1-1.4l0.1-0.1c0.4-0.4,1.1-0.5,1.5-0.1c0.1,0,0.1,0.1,0.1,0.2c0.4,0.4,0.7,0.7,1.1,1.2
	C93.9,60.9,93.4,61.1,93,61.3z M97.1,54.2c-0.1,0-0.2-0.1-0.2-0.1c-1-1.5-0.9-1.7,0.7-2.5C98.8,52.9,98.7,53.1,97.1,54.2z
	 M99.7,65.9c-0.4,0.1-0.8-0.1-1-0.5s-0.4-0.9-0.5-1.3c0.6-0.3,1-0.6,1.6-0.8c0.3-0.1,0.6,0,0.8,0.3c0.3,0.5,0.6,1.1,1,1.8
	C100.9,65.6,100.3,65.8,99.7,65.9z M104.6,58.6c-0.5,0.2-1-0.1-1.2-0.6c-0.2-0.4-0.2-0.8,0.2-1.1c0.3-0.5,0.9-0.7,1.3-0.4
	c0.2,0.1,0.4,0.3,0.5,0.5c0.3,0.3,0.5,0.6,0.8,1C105.6,58.2,105.1,58.4,104.6,58.6L104.6,58.6z M111.8,63.5c-0.3,0.1-0.7,0-0.9-0.3
	c-0.2-0.4-0.4-0.8-0.5-1.3c0.3-0.3,0.7-0.5,1.1-0.6s0.8,0.1,1.1,0.5c0.2,0.4,0.5,0.7,0.8,1.1C112.7,63.2,112.3,63.4,111.8,63.5
	L111.8,63.5z M123.8,60.6c-0.2,0.1-0.3,0.1-0.5,0.2c-0.1,0-0.1,0-0.2,0s-0.1-0.1-0.1-0.1c-0.8-1.2-0.7-1.4,0.5-2.1l0.6-0.3
	c0.2,0.4,0.3,0.6,0.4,0.9C124.7,59.7,124.4,60.3,123.8,60.6L123.8,60.6z M131.2,65.2c-0.3,0.2-0.5,0.3-0.9,0.6
	c-0.2-0.6-0.4-1-0.5-1.5s0.2-1,0.6-1.1h0.1c0.3-0.2,0.8-0.1,1,0.2c0,0.1,0.1,0.1,0.1,0.2c0.4,0.4,0.4,1,0.1,1.4
	C131.5,65.1,131.4,65.1,131.2,65.2L131.2,65.2z"/>
</svg>
