<?xml version="1.0" encoding="utf-8"?>
<!-- Generator: Adobe Illustrator 19.2.0, SVG Export Plug-In . SVG Version: 6.00 Build 0)  -->
<svg version="1.1" id="Layer_1" xmlns="http://www.w3.org/2000/svg" xmlns:xlink="http://www.w3.org/1999/xlink" x="0px" y="0px"
	 viewBox="0 0 390 343.5" style="enable-background:new 0 0 390 343.5;" xml:space="preserve">
<style type="text/css">
	.st0{fill:#FFFFFF;}
</style>
<path class="st0" d="M297.7,9.9H69.8C36.7,9.9,9.4,36.3,9.4,69.3v113.1c0,33.1,27.3,60.4,60.4,60.4h22.4L34.9,304L166,242.9h131.7
	c33.1,0,60.7-27.4,60.7-60.4V69.3C358.4,36.3,330.7,9.9,297.7,9.9z"/>
<path d="M370,178.9l-0.2-13.5l-0.5-27.1l-0.6-54.2l-0.1-13.5c0-2.3-0.2-4.5-0.4-6.8c-0.3-2.3-0.7-4.5-1-6.8c-2-8.9-6-17.4-11.7-24.5
	c-5.7-7.2-13.1-12.9-21.3-16.7c-8.2-3.9-17.3-5.9-26.4-5.9l-69.2-0.3l-17.3-0.1l-17.3-0.2L169.2,9c-11.5-0.1-23.1-0.2-34.6-0.4
	L100,8L82.7,7.7l-2.2,0l-0.5,0l-0.1,0l-0.3,0l-0.3,0l-1.1,0l-4.3,0.1c-1.5,0.1-3,0.4-4.6,0.5L67,8.6l-2.2,0.5
	c-5.9,1.2-11.6,3.4-17,6.2c-1.3,0.7-2.7,1.5-4,2.2l-3.8,2.6c-1.3,0.8-2.4,1.9-3.6,2.8c-1.2,1-2.4,1.9-3.4,3
	c-8.8,8.4-15.2,19.6-17.7,31.8l-0.8,4.6c-0.2,1.5-0.2,3.1-0.4,4.6L14,69.3l0,2.2l-0.1,4.3l-0.3,17.3l-1.2,69.2L12,179.7l0,2.2l0,0.5
	l0,0.9l0,1.1l0.2,4.3c0.1,1.6,0.4,3.3,0.7,5c0.1,0.8,0.2,1.7,0.4,2.5l0.6,2.3c3,12.5,9.8,23.9,18.9,32.9l3.5,3.3c1.2,1,2.5,2,3.8,3
	c0.6,0.5,1.3,1,1.9,1.4l2,1.3c1.4,0.8,2.7,1.8,4.1,2.5c5.6,3.1,11.8,5.3,18.1,6.9l4.8,0.8c1.6,0.3,3.2,0.4,4.8,0.5l2.4,0.1
	c0.8,0,1.7,0.1,2.3,0.1l4.2,0L68,269c-9.6,10.1-19.1,20.4-28.6,30.6l-27.1,29l35.9-16.9l32.7-15.4l16.4-7.7l16.3-7.8l32.6-15.6
	l16.3-7.8c5.1-2.4,10.1-4.9,15.1-7.3l106.8-1.9l13.5-0.2l6.8-0.1l1.7,0l0.8,0l0.4,0l0.3,0l0.1,0l0.2,0l3.4-0.2
	c2.2-0.1,4.7-0.6,7.1-1l1.8-0.3l1.7-0.5l3.5-1c1.2-0.3,2.2-0.8,3.4-1.3l3.3-1.3l3.2-1.7c1-0.6,2.2-1,3.1-1.7
	c8.1-5,15.1-11.7,20.4-19.6c5.3-7.8,8.7-16.9,10.1-26.2l0.5-3.5c0.1-1.2,0.1-2.3,0.2-3.5l0.1-3.5L370,178.9z M367.2,84.1l0,54.2
	l0,27.1l0,13.5l0,3.4l-0.2,3.4c-0.1,1.1-0.1,2.2-0.2,3.3l-0.5,3.3c-1.5,8.8-4.9,17.3-10,24.6c-5.1,7.3-11.8,13.6-19.5,18.1
	c-7.7,4.6-16.5,7.2-25.4,7.8L308,243c-1.1,0-2.2,0-3.4,0l-6.8,0l-13.5,0L176,242.9h-0.2l-0.1,0.1L48.5,302.2l54.3-57.9l1.3-1.4h-1.9
	l-3.6,0l-13.7,0c-5.8,0.1-11.4-0.2-17.1-1.3c-5.5-1.3-11-3.2-16-5.9c-1.3-0.6-2.4-1.5-3.7-2.2l-1.8-1.1c-0.6-0.4-1.1-0.9-1.7-1.3
	c-1.1-0.9-2.3-1.7-3.4-2.6l-3.2-2.9c-8.2-7.9-14.3-18-17.1-29.1l-0.6-2.1c-0.1-0.7-0.2-1.4-0.3-2.1c-0.2-1.4-0.5-2.8-0.6-4.2
	l-0.2-4.3l0.1-1.1l0.1-0.5v-0.5v-2.2v-17.3l-0.2-69.2l0.1-17.3l0.1-4.3v-2.2l0-2.1c0.1-1.4,0-2.9,0.2-4.3l0.6-4.2
	C22.3,47.5,28,37,36.1,29c0.9-1.1,2.1-2,3.1-2.9c1.1-0.9,2.1-1.9,3.3-2.7l3.5-2.5c1.2-0.7,2.5-1.4,3.7-2.2c5-2.7,10.3-4.9,15.9-6.1
	l2.1-0.5l2.1-0.3c1.4-0.2,2.8-0.5,4.2-0.6c2.9-0.1,5.7-0.3,8.6-0.3l17.3,0l69.2,0l138.5-0.1c9,0,17.9,2,26,5.9
	c8.1,3.8,15.4,9.4,20.9,16.5c5.6,7,9.5,15.3,11.4,24.1c0.4,2.2,0.7,4.4,1,6.6c0.1,2.2,0.3,4.5,0.3,6.7L367.2,84.1z"/>
</svg>
