<?xml version="1.0" encoding="utf-8"?>
<!-- Generator: Adobe Illustrator 19.2.0, SVG Export Plug-In . SVG Version: 6.00 Build 0)  -->
<svg version="1.1" id="Layer_1" xmlns="http://www.w3.org/2000/svg" xmlns:xlink="http://www.w3.org/1999/xlink" x="0px" y="0px"
	 viewBox="0 0 584 537" style="enable-background:new 0 0 584 537;" xml:space="preserve">
<style type="text/css">
	.st0{fill:#FFFFFF;}
</style>
<path class="st0" d="M459,148H191.5l42.8-99.4L143.2,148h-36C55.4,148,13,189.4,13,240.9v173.9c0,51.5,42.4,93.3,94.2,93.3H459
	c51.8,0,94-41.7,94-93.3V240.9C553,189.4,510.8,148,459,148z"/>
<g>
	<path d="M472,135.5l-16.7,0l-16.7,0.1l-16.7,0.3l-16.7,0.4l-16.7,0.5l-16.7,0.6l-33.4,1.2l-33.4,1.3l-33.4,1.1l-16.7,0.4
		c-5.6,0.1-11.1,0.3-16.7,0.3c-5.6,0.1-11.1,0-16.7,0l-16.7-0.1l-9.1-0.1l3.6-8.3l42.8-99.4l9.9,6.4l-91.1,99.6l-1.8,2.2h-2.6h-20.7
		h-10.3l-5-0.2c-1.7,0.1-3.5-0.1-5.1,0c-1.6,0.1-3.1,0.1-4.7,0.3c-1.6,0.2-3.2,0.3-4.8,0.6c-1.6,0.3-3.2,0.5-4.8,0.9l-2.4,0.5
		c-0.8,0.2-1.6,0.4-2.3,0.6c-6.2,1.7-12.3,4.1-18,7.1c-11.4,6.1-21.5,14.5-29.3,24.8C41,187,35.5,199,33.1,211.7
		c-0.3,1.6-0.6,3.2-0.8,4.8l-0.3,2.4c-0.1,0.8-0.1,1.6-0.2,2.4c-0.1,0.8-0.1,1.6-0.2,2.4l-0.3,2.4c-0.1,1.6-0.3,3.3-0.3,5v20.7v41.4
		v82.7v20.7v5.2l0.3,2.4c0,0.8,0.2,1.8,0.2,2.6c0.1,1.6,0.3,3.1,0.5,4.7c0.2,1.6,0.4,3.2,0.7,4.8c2.2,12.7,7.2,24.9,14.7,35.4
		c7.5,10.5,17.2,19.5,28.4,26c11.2,6.5,23.8,10.5,36.6,11.6c1.6,0.1,3.2,0.5,4.8,0.5c1.6,0,3.2,0.3,5,0.3h10.3h20.7h41.4h82.7h165.4
		h20.7h5.2h2.6h0.6c0.2,0,0-0.2,0.2-0.3l0.3-0.1l1.3-0.1l2.6-0.1c0.9,0,1.6-0.1,2.4-0.2l2.3-0.2l2.4-0.3c6.4-0.8,12.7-2.4,18.7-4.6
		c6-2.2,11.8-5.2,17.3-8.7c10.9-7,20.1-16.4,26.9-27.4c6.9-10.9,11.2-23.4,12.7-36.2l0.2-1.2l0.1-1.2l0.2-2.4
		c0.1-1.6-0.1-3.2-0.1-4.8l-0.2-10.3v-20.7c0-13.8,0.3-27.6,0.1-41.4c-0.2-13.8,0.5-27.6,0.8-41.4c0.4-13.8,0.9-27.6,1.4-41.4
		l0.4-10.3l0.2-5.2l0.1-2.6l0.1-1.2l0-1.3c0-1.7,0.1-3.5,0-5.1L562,219c0-0.8-0.1-1.7-0.2-2.5l-0.2-2.5l-0.3-2.5
		c-0.2-1.7-0.5-3.3-0.9-4.9c-1.3-6.6-3.4-13-6.2-19.2c-2.8-6.1-6.3-12-10.5-17.4c-8.4-10.7-19.3-19.6-31.7-25.5
		C499.6,138.6,485.8,135.5,472,135.5z M472,135.5c13.8,0,27.6,2.9,40.2,8.5c6.3,2.8,12.3,6.3,17.9,10.5c5.6,4.1,10.8,8.8,15.4,14.1
		c9.2,10.5,16.2,23.1,19.9,36.8c0.5,1.7,0.9,3.4,1.3,5.2l0.6,2.6l0.4,2.6c0.1,0.9,0.3,1.7,0.4,2.6l0.3,2.7c0.2,1.8,0.3,3.5,0.4,5.2
		l0.1,1.3l0.1,1.4l0.1,2.6l0.2,5.2l0.4,10.3c0.5,13.8,1,27.6,1.3,41.4c0.3,13.8,0.6,27.6,0.4,41.4c-0.2,13.8,0.6,27.6-0.4,41.4v20.7
		l0.2,10.4c-0.1,1.8,0.1,3.7-0.1,5.5l-0.1,2.7l-0.1,1.4l-0.2,1.4c-1.7,14.6-6.6,28.8-14.4,41.2c-7.8,12.4-18.2,23.2-30.6,31.1
		c-6.2,4-12.7,7.3-19.6,9.8c-6.9,2.5-14.1,4.3-21.3,5.2l-2.7,0.3l-2.8,0.2c-0.9,0.1-1.9,0.2-2.8,0.2l-2.6,0.1l-1.3,0.3l-0.8,0.3
		h-0.6h-2.6h-5.2h-20.7H277.3h-82.7h-41.4h-20.7h-10.3c-1.7,0-3.5-0.3-5.4-0.3c-1.8,0-3.7-0.3-5.5-0.5c-14.6-1.2-28.9-5.9-41.6-13.3
		c-12.7-7.3-23.7-17.5-32.2-29.5c-8.5-11.9-14.2-25.9-16.7-40.4c-0.4-1.8-0.5-3.6-0.8-5.5c-0.2-1.8-0.3-3.8-0.5-5.6
		c-0.1-0.9-0.3-1.7-0.3-2.6l-0.3-2.7v-5.2v-20.7v-82.7v-41.4v-20.7c0-1.7,0.2-3.4,0.3-5.3l0.2-2.8c0-0.9,0.2-1.8,0.3-2.7
		c0.1-0.9,0.2-1.8,0.3-2.7l0.4-2.7c0.2-1.8,0.6-3.6,0.9-5.4c2.7-14.5,9-28.2,17.9-39.9c8.8-11.7,20.4-21.3,33.3-28.2
		c6.5-3.4,13.3-6.1,20.4-8.1c0.9-0.2,1.8-0.5,2.7-0.7l2.7-0.6c1.8-0.4,3.6-0.7,5.4-1c1.8-0.4,3.6-0.5,5.4-0.7
		c1.8-0.2,3.7-0.3,5.6-0.5c1.8-0.1,3.5,0.1,5.2,0.1l5.3,0.2h10.3h20.7l-4.4,1.7l91.1-99.5l24-26.2l-14,32.5L210,137.9l-5.5-8.4
		l16.7-0.1c5.6-0.1,11.1-0.1,16.7,0c5.6,0.1,11.1,0.2,16.7,0.3l16.7,0.4l33.4,1.1l33.4,1.3l33.4,1.2l16.7,0.6l16.7,0.5l16.7,0.4
		l16.7,0.3l16.7,0.1L472,135.5z"/>
</g>
</svg>
